<svg xmlns="http://www.w3.org/2000/svg" width="631.853" height="141" viewBox="0 0 631.853 141">
  <g id="Group_717" data-name="Group 717" transform="translate(-810 -193.762)">
    <g id="Ellipse_253" data-name="Ellipse 253" transform="translate(810 193.762)" fill="#fff" stroke="#707070" stroke-width="1">
      <circle cx="70.5" cy="70.5" r="70.5" stroke="none"/>
      <circle cx="70.5" cy="70.5" r="70" fill="none"/>
    </g>
    <g id="Group_711" data-name="Group 711" transform="translate(757 146.762)">
      <g id="Group_383" data-name="Group 383">
        <path id="Path_1534" data-name="Path 1534" d="M191.744,116.753v.336c0,.173,0,.336-.01.509-1.6.106-2.477,1.2-3.389,2.429a16.1,16.1,0,0,1-2.631,2.314,5.284,5.284,0,0,1-.662.4,8.806,8.806,0,0,1,3.293,4.33,2.918,2.918,0,0,0,1.949,1.623l.432.144c-.029.182-.057.355-.1.528a4.409,4.409,0,0,1-.8-.01,2.26,2.26,0,0,0-1.843.759,25.457,25.457,0,0,1-2.852,2.342,10.735,10.735,0,0,1-2.247.855,6.975,6.975,0,0,1,1.124,1.267,12.5,12.5,0,0,1,1.277,2.977,3.907,3.907,0,0,0,2.3,2.909c-.038.1-.067.192-.1.288a2.818,2.818,0,0,1-.3-.076c-1.277-.442-2.257.124-3.255.835-1.44,1.027-2.957,1.891-4.772,1.671.451,1.008.96,1.977,1.315,3a8.606,8.606,0,0,1,.394,2.161,2.92,2.92,0,0,0,1.459,2.727.591.591,0,0,1,.183.163c-.067.1-.125.211-.192.317a.844.844,0,0,1-.183-.068,3.168,3.168,0,0,0-3.312.2,7.365,7.365,0,0,1-4.148.96c-.327-.029-.663-.077-1.047-.125a7.8,7.8,0,0,1,.749,1.873,32.512,32.512,0,0,1,.211,4.109,2.544,2.544,0,0,0,.922,2.295.555.555,0,0,1,.125.134c-.086.1-.163.193-.25.289h-.009a4.251,4.251,0,0,0-3.812-.269,6.607,6.607,0,0,1-4.916-.288c.163.528.249.9.384,1.267a5.575,5.575,0,0,1-.106,3.361,7.315,7.315,0,0,0-.432,2.429,4.505,4.505,0,0,0,.643,1.594c-.076.067-.153.125-.23.182-1.239-1.19-2.852-.893-4.446-.835a5.22,5.22,0,0,1-3.207-.634c-.211-.144-.432-.259-.825-.5a4.765,4.765,0,0,1,.2,1.4,16.8,16.8,0,0,1-.989,3.869,3.983,3.983,0,0,0-.259,3.236c-.134.077-.269.154-.413.23a.552.552,0,0,1-.077-.124,2.474,2.474,0,0,0-2.314-1.229c-2.016-.125-3.917-.452-5.453-2.094a6.636,6.636,0,0,1-1.316,4.628c-.3.452-.6.913-.873,1.383a2.219,2.219,0,0,0-.279,2.1,4.936,4.936,0,0,1-.49.173l-.009-.01a2.254,2.254,0,0,0-1.757-1.488,8.146,8.146,0,0,1-5.435-3.313c.077,2.372-1.21,3.774-2.487,5.108a3.893,3.893,0,0,0-1.334,2.506c-.135.02-.269.048-.4.068-.509-1.354-1.853-1.882-3.12-2.478a5.357,5.357,0,0,1-3.054-3.2c-.576,2.314-2.285,3.524-3.965,4.762a2.568,2.568,0,0,0-1.152,1.748c-.173.01-.336,0-.5,0a2.706,2.706,0,0,0-1.373-1.872,11.473,11.473,0,0,1-2.093-1.642,5.19,5.19,0,0,1-1.622-3.1c-.807,2.094-2.478,3.121-4.321,3.927a3.38,3.38,0,0,0-1.757,1.594c-.231-.038-.452-.076-.682-.124a5.723,5.723,0,0,0-1.949-3.025,4.769,4.769,0,0,1-1.7-3.389c0-.125-.115-.24-.249-.509-1.441,1.968-3.639,2.362-5.665,3.12a2.494,2.494,0,0,0-.96.874c-.231-.086-.452-.173-.682-.259a2.611,2.611,0,0,0-.576-1.853c-.663-1.191-1.373-2.362-1.94-3.6a6.639,6.639,0,0,1-.259-1.815,17.992,17.992,0,0,1-2.612,1.316c-.883.278-1.862.249-2.784.441a3.243,3.243,0,0,0-1.853.711c-.2-.115-.4-.24-.6-.365a3.99,3.99,0,0,0-.615-2.535,7.424,7.424,0,0,1-.72-5.146,3.206,3.206,0,0,0-.451.182,4.614,4.614,0,0,1-2.91.874c-.566-.048-1.152.019-1.728-.019a5.076,5.076,0,0,0-2.487.288c-.269-.221-.528-.442-.787-.672a11.2,11.2,0,0,0,.2-1.229,5.93,5.93,0,0,0-.4-2,5.708,5.708,0,0,1,.24-3.869.719.719,0,0,0,.02-.279,22.667,22.667,0,0,1-2.842.385,9.454,9.454,0,0,1-2.094-.385,6.217,6.217,0,0,0-2.506-.144c-.2-.23-.4-.47-.6-.71a5.457,5.457,0,0,0,.192-3.044,6.708,6.708,0,0,1,.653-3.8c.1-.2.211-.394.4-.749-2.343.787-4.215-.288-6.145-1.066a2.64,2.64,0,0,0-1.267-.221c-.154-.268-.308-.537-.452-.806a5.266,5.266,0,0,0,.577-2.41c.192-1.729.46-3.438,2.045-4.686a6.932,6.932,0,0,1-4.82-1.488,5.146,5.146,0,0,0-2.314-1.124c-.106-.307-.221-.614-.327-.921a2.647,2.647,0,0,0,.759-1.479c.451-2.036,1.2-3.879,2.89-4.954-1.018-.442-2.084-.855-3.092-1.383a5.408,5.408,0,0,1-1.536-1.229,4.484,4.484,0,0,0-1.786-1.344c-.058-.327-.115-.653-.173-.98a5.548,5.548,0,0,0,1.479-2.266,5.606,5.606,0,0,1,3.37-3.437c-2.372-.615-3.572-2.487-4.878-4.215a2.146,2.146,0,0,0-.883-.692c-.01-.2-.01-.393-.01-.6v-.413a4.5,4.5,0,0,0,1.7-1.766c1.267-1.94,2.371-2.727,4.273-3.044a6.666,6.666,0,0,1-3.678-3.774,5.145,5.145,0,0,0-1.392-2.064c.048-.326.1-.663.163-.989a1.872,1.872,0,0,0,.893-.4c1.575-1.489,3.063-3.054,5.579-3.39A8.157,8.157,0,0,1,60.9,96.1a2.4,2.4,0,0,0-.845-1.344c.1-.308.211-.6.317-.9a3.212,3.212,0,0,0,1.507-.557c1.2-.672,2.381-1.373,3.63-1.939a5.659,5.659,0,0,1,1.67-.24,32.569,32.569,0,0,1-1.325-3.169,16.543,16.543,0,0,1-.442-2.689,2.52,2.52,0,0,0-.489-1.267c.125-.25.269-.5.413-.749a5.055,5.055,0,0,0,2.717-.749,7.008,7.008,0,0,1,4.666-.605c.01-.028.029-.067.02-.076-1.133-1.767-.961-3.764-.874-5.7a3.409,3.409,0,0,0-.355-1.805c.172-.221.355-.442.537-.653a3.251,3.251,0,0,0,1.94.01c1.891-.519,3.8-.884,5.617,0a20.858,20.858,0,0,1-.394-3.054,7.982,7.982,0,0,1,.509-2.669,2.785,2.785,0,0,0-.048-2.055c.192-.163.374-.326.566-.47,1,.749,2.17.413,3.255.355a5.87,5.87,0,0,1,3.918.8,3.527,3.527,0,0,0,.614.259c-.777-2.323.337-4.225,1.1-6.164a2.448,2.448,0,0,0,.106-1.7c.182-.115.374-.23.566-.336a3.815,3.815,0,0,0,2.813.913,6.877,6.877,0,0,1,4.552,1.882A10.086,10.086,0,0,1,99.424,55.7a1.859,1.859,0,0,0,.4-1.892c.182-.067.355-.134.538-.2a2.537,2.537,0,0,0,1.786,1.258,8.371,8.371,0,0,1,5.031,2.784c.038.058.134.077.288.154-.077-1.921,1.047-3.236,2.179-4.465a5.38,5.38,0,0,0,1.71-2.794c.134-.029.278-.058.412-.077a.45.45,0,0,0,.048.067,8.939,8.939,0,0,0,1.546,1.623c.72.509,1.661.72,2.343,1.277a22.6,22.6,0,0,1,2.228,2.362,6.952,6.952,0,0,1,3.207-3.975c1.344-.893,1.613-1.2,1.8-2.449.144,0,.288-.009.432,0,.115,1.2,1.066,1.815,1.94,2.516,2.151,1.709,2.131,1.719,3.274,4.119a5.937,5.937,0,0,1,3.188-3.178c.23-.106.451-.25.691-.346a3.644,3.644,0,0,0,2.314-2.266,2.57,2.57,0,0,1,.279.048c-.01,1.652,1.4,2.6,2.314,3.783a5.833,5.833,0,0,1,1.642,3.831,7.78,7.78,0,0,0,.633-.614,6.452,6.452,0,0,1,3.265-2.016c1.382-.413,2.8-.711,3.524-2.094l.23.087a3.105,3.105,0,0,0,.672,3.024,8.834,8.834,0,0,1,1.776,3.668,15.64,15.64,0,0,1,.1,1.565,7.816,7.816,0,0,1,5.3-2,2.913,2.913,0,0,0,2.3-1.162,1.767,1.767,0,0,1,.317-.345c.125.067.25.144.374.211a.983.983,0,0,1-.144.346c-.691.95-.24,1.795.154,2.669a9.011,9.011,0,0,1,1.152,4.273c-.029.393-.1.777-.173,1.325a4.15,4.15,0,0,1,1.085-.557,22.364,22.364,0,0,1,3.476-.413c1.469.009,2.89.038,4.052-1.008.067.048.125.1.183.144a.656.656,0,0,1-.1.134,2.773,2.773,0,0,0-.48,2.967c.538,1.815,1,3.668-.134,5.579a11,11,0,0,1,2.295-.48,14.506,14.506,0,0,1,3.216.432,4.305,4.305,0,0,0,3.495-.423.6.6,0,0,1,.077.087,1.28,1.28,0,0,1-.3.48,2.326,2.326,0,0,0-.758,2.006,39.981,39.981,0,0,1-.231,4.3,7.152,7.152,0,0,1-.777,1.863,7.679,7.679,0,0,1,5.559.95,3.9,3.9,0,0,0,3.332.02,1.786,1.786,0,0,1,.106.182,1.069,1.069,0,0,1-.327.3,2.813,2.813,0,0,0-1.392,2.64,7.584,7.584,0,0,1-1.978,5.156c2.429-.163,4.177,1.076,5.9,2.3.9.633,1.8.268,2.785.172.029.068.048.135.077.212a4.776,4.776,0,0,0-.922.624,3.581,3.581,0,0,0-1.056,1.277c-.6,1.853-1,3.783-2.708,5.2a6.052,6.052,0,0,1,1.46.509,38.343,38.343,0,0,1,3.4,2.563,3,3,0,0,0,2.334.807,2.584,2.584,0,0,1,.48.01c.048.278.1.547.144.825-.192.068-.394.144-.586.2a2.433,2.433,0,0,0-1.632,1.4,9.075,9.075,0,0,1-3.255,4.4,19.617,19.617,0,0,1,1.93,1.508,17.507,17.507,0,0,1,1.92,2.3A3.271,3.271,0,0,0,191.744,116.753Z" fill="#fff"/>
        <g id="Group_382" data-name="Group 382">
          <g id="Group_381" data-name="Group 381">
            <path id="Path_1535" data-name="Path 1535" d="M79.011,169.966a.51.51,0,0,0,.1.067.329.329,0,0,0,.02-.1Zm112.915-53.194c-.057-.009-.124-.009-.182-.019a3.271,3.271,0,0,1-2.583-1.258,17.507,17.507,0,0,0-1.92-2.3,19.617,19.617,0,0,0-1.93-1.508,9.075,9.075,0,0,0,3.255-4.4,2.433,2.433,0,0,1,1.632-1.4c.192-.058.394-.134.586-.2.269-.1.538-.221.806-.326-.009-.125-.009-.24-.019-.365-.317-.038-.624-.106-.931-.134a2.584,2.584,0,0,0-.48-.01,3,3,0,0,1-2.334-.807,38.343,38.343,0,0,0-3.4-2.563,6.052,6.052,0,0,0-1.46-.509c1.709-1.421,2.1-3.351,2.708-5.2a3.581,3.581,0,0,1,1.056-1.277,4.776,4.776,0,0,1,.922-.624q.172-.115.374-.231c-.153,0-.307.01-.451.019-.989.1-1.882.461-2.785-.172-1.718-1.229-3.466-2.468-5.9-2.3a7.584,7.584,0,0,0,1.978-5.156,2.813,2.813,0,0,1,1.392-2.64,1.069,1.069,0,0,0,.327-.3c.086-.106.172-.221.259-.317-.125.048-.25.1-.365.135a3.9,3.9,0,0,1-3.332-.02,7.679,7.679,0,0,0-5.559-.95,7.152,7.152,0,0,0,.777-1.863,39.981,39.981,0,0,0,.231-4.3,2.326,2.326,0,0,1,.758-2.006,1.28,1.28,0,0,0,.3-.48,1.186,1.186,0,0,1,.1-.192,1.664,1.664,0,0,1-.173.105,4.305,4.305,0,0,1-3.495.423,14.506,14.506,0,0,0-3.216-.432,11,11,0,0,0-2.295.48c1.133-1.911.672-3.764.134-5.579a2.773,2.773,0,0,1,.48-2.967.656.656,0,0,0,.1-.134c.076-.154.1-.346.172-.5a3.062,3.062,0,0,1-.355.356c-1.162,1.046-2.583,1.017-4.052,1.008a22.364,22.364,0,0,0-3.476.413,4.15,4.15,0,0,0-1.085.557c.077-.548.144-.932.173-1.325a9.011,9.011,0,0,0-1.152-4.273c-.394-.874-.845-1.719-.154-2.669a.983.983,0,0,0,.144-.346c.048-.163.067-.355.116-.519a2.021,2.021,0,0,0-.49.308,1.767,1.767,0,0,0-.317.345,2.913,2.913,0,0,1-2.3,1.162,7.816,7.816,0,0,0-5.3,2,15.64,15.64,0,0,0-.1-1.565,8.834,8.834,0,0,0-1.776-3.668,3.105,3.105,0,0,1-.672-3.024c.01-.01.01-.029.019-.039a1.532,1.532,0,0,0-.009-.624,3.153,3.153,0,0,1-.24.576c-.72,1.383-2.142,1.681-3.524,2.094a6.452,6.452,0,0,0-3.265,2.016,7.78,7.78,0,0,1-.633.614,5.833,5.833,0,0,0-1.642-3.831c-.913-1.181-2.324-2.131-2.314-3.783a3.017,3.017,0,0,1,.076-.691c0-.019-.086-.048-.172-.115a3.7,3.7,0,0,1-2.5,3.024c-.24.1-.461.24-.691.346A5.937,5.937,0,0,0,128.584,56c-1.143-2.4-1.123-2.41-3.274-4.119-.874-.7-1.825-1.315-1.94-2.516a3.3,3.3,0,0,1,0-.422c.02-.192-.163-.4-.288-.663-.048.432-.086.788-.144,1.085-.182,1.249-.451,1.556-1.8,2.449a6.952,6.952,0,0,0-3.207,3.975,22.6,22.6,0,0,0-2.228-2.362c-.682-.557-1.623-.768-2.343-1.277a8.939,8.939,0,0,1-1.546-1.623.45.45,0,0,1-.048-.067,5.122,5.122,0,0,1-.4-.893,3.266,3.266,0,0,1-.009.97,5.38,5.38,0,0,1-1.71,2.794c-1.132,1.229-2.256,2.544-2.179,4.465-.154-.077-.25-.1-.288-.154a8.371,8.371,0,0,0-5.031-2.784,2.537,2.537,0,0,1-1.786-1.258,2.337,2.337,0,0,1-.212-.442,2.359,2.359,0,0,0-.22-.394,1.1,1.1,0,0,0-.154.913.7.7,0,0,1,.048.124,1.859,1.859,0,0,1-.4,1.892,10.086,10.086,0,0,0-2.266,5.723,6.877,6.877,0,0,0-4.552-1.882,3.815,3.815,0,0,1-2.813-.913,2.612,2.612,0,0,1-.326-.441c-.106-.183-.346-.3-.528-.442a.915.915,0,0,0,.057.643,3.645,3.645,0,0,1,.231.576,2.448,2.448,0,0,1-.106,1.7c-.758,1.939-1.872,3.841-1.1,6.164a3.527,3.527,0,0,1-.614-.259,5.87,5.87,0,0,0-3.918-.8c-1.085.058-2.256.394-3.255-.355a.337.337,0,0,1-.067-.048c-.432-.336-.826-.7-1.238-1.056a.368.368,0,0,0,.057.384,5.688,5.688,0,0,1,.682,1.19,2.785,2.785,0,0,1,.048,2.055,7.982,7.982,0,0,0-.509,2.669,20.858,20.858,0,0,0,.394,3.054c-1.815-.884-3.726-.519-5.617,0a3.251,3.251,0,0,1-1.94-.01,3.77,3.77,0,0,1-.922-.461,7.072,7.072,0,0,0-.662-.336.651.651,0,0,0,.25.538,2.845,2.845,0,0,1,.8.912,3.409,3.409,0,0,1,.355,1.805c-.087,1.94-.259,3.937.874,5.7.009.009-.01.048-.02.076a7.008,7.008,0,0,0-4.666.605,5.055,5.055,0,0,1-2.717.749,3.051,3.051,0,0,1-1.258-.4c-.058-.039-.163.009-.365.029.2.249.326.518.518.6a1.846,1.846,0,0,1,.692.518,2.52,2.52,0,0,1,.489,1.267,16.543,16.543,0,0,0,.442,2.689,32.569,32.569,0,0,0,1.325,3.169,5.659,5.659,0,0,0-1.67.24c-1.249.566-2.43,1.267-3.63,1.939a3.212,3.212,0,0,1-1.507.557,1.76,1.76,0,0,1-.567-.106,8.488,8.488,0,0,0-1.6-.192c.3.183.432.26.576.346a9.866,9.866,0,0,1,1.277.855A2.4,2.4,0,0,1,60.9,96.1a8.157,8.157,0,0,0,2.919,5.146c-2.516.336-4,1.9-5.579,3.39a1.872,1.872,0,0,1-.893.4c-.259.077-.518.125-.768.192a3.09,3.09,0,0,1-.845.019c-.029.067-.058.144-.086.221a2.734,2.734,0,0,1,1.536.557,5.145,5.145,0,0,1,1.392,2.064,6.666,6.666,0,0,0,3.678,3.774c-1.9.317-3.006,1.1-4.273,3.044a4.5,4.5,0,0,1-1.7,1.766,2.339,2.339,0,0,1-.9.259c-.356.029-.711.077-1.056.116-.01.067-.01.144-.02.211.279.058.557.125.836.163a4.479,4.479,0,0,1,1.152.259,2.146,2.146,0,0,1,.883.692c1.306,1.728,2.506,3.6,4.878,4.215a5.606,5.606,0,0,0-3.37,3.437,5.548,5.548,0,0,1-1.479,2.266,3.543,3.543,0,0,1-1.555.778,3.483,3.483,0,0,1,1.728.2,4.484,4.484,0,0,1,1.786,1.344,5.408,5.408,0,0,0,1.536,1.229c1.008.528,2.074.941,3.092,1.383-1.69,1.075-2.439,2.918-2.89,4.954a2.647,2.647,0,0,1-.759,1.479,1.892,1.892,0,0,1-.691.413,5.611,5.611,0,0,0-1.066.7c.01.076.01.163.019.24a3.262,3.262,0,0,1,2.065-.433,5.146,5.146,0,0,1,2.314,1.124A6.932,6.932,0,0,0,67.6,143.2c-1.585,1.248-1.853,2.957-2.045,4.686a5.266,5.266,0,0,1-.577,2.41,2.273,2.273,0,0,1-.864.768c-.134.077-.211.278-.451.614a6.228,6.228,0,0,0,.759-.259,2.575,2.575,0,0,1,1.008-.317,2.64,2.64,0,0,1,1.267.221c1.93.778,3.8,1.853,6.145,1.066-.192.355-.307.547-.4.749a6.708,6.708,0,0,0-.653,3.8,5.457,5.457,0,0,1-.192,3.044,2.4,2.4,0,0,1-.605.758,8.969,8.969,0,0,0-.634.682c.048.077.1.144.144.221a3.327,3.327,0,0,1,1.69-.951,6.217,6.217,0,0,1,2.506.144,9.454,9.454,0,0,0,2.094.385,22.667,22.667,0,0,0,2.842-.385.719.719,0,0,1-.02.279,5.708,5.708,0,0,0-.24,3.869,5.93,5.93,0,0,1,.4,2,11.2,11.2,0,0,1-.2,1.229c-.134.566-.307,1.133-.442,1.728a.163.163,0,0,0,.106-.058,2.739,2.739,0,0,1,1.123-1,5.076,5.076,0,0,1,2.487-.288c.576.038,1.162-.029,1.728.019a4.614,4.614,0,0,0,2.91-.874,3.206,3.206,0,0,1,.451-.182,7.424,7.424,0,0,0,.72,5.146,3.99,3.99,0,0,1,.615,2.535,2.7,2.7,0,0,1-.336.922,2.2,2.2,0,0,0-.087.614c.317-.288.6-.413.682-.624a1.61,1.61,0,0,1,.346-.547,3.243,3.243,0,0,1,1.853-.711c.922-.192,1.9-.163,2.784-.441a17.992,17.992,0,0,0,2.612-1.316,6.639,6.639,0,0,0,.259,1.815c.567,1.239,1.277,2.41,1.94,3.6A2.611,2.611,0,0,1,99.9,180.4a2.167,2.167,0,0,1-.115.317,4.492,4.492,0,0,0-.2,1.267,6.958,6.958,0,0,0,.557-.768c.144-.173.288-.365.442-.557a2.494,2.494,0,0,1,.96-.874c2.026-.758,4.224-1.152,5.665-3.12.134.269.249.384.249.509a4.769,4.769,0,0,0,1.7,3.389,5.723,5.723,0,0,1,1.949,3.025,4.411,4.411,0,0,1-.038,1.766,2,2,0,0,0,.441-.845,4.052,4.052,0,0,1,.279-.8,3.38,3.38,0,0,1,1.757-1.594c1.843-.806,3.514-1.833,4.321-3.927a5.19,5.19,0,0,0,1.622,3.1,11.473,11.473,0,0,0,2.093,1.642,2.706,2.706,0,0,1,1.373,1.872c.087.346.144.71.2,1.085a1.171,1.171,0,0,0,.279-.663,3.065,3.065,0,0,1,.019-.422,2.568,2.568,0,0,1,1.152-1.748c1.68-1.238,3.389-2.448,3.965-4.762a5.357,5.357,0,0,0,3.054,3.2c1.267.6,2.611,1.124,3.12,2.478a3.447,3.447,0,0,1,.2.96c.125-.077.163-.087.163-.106a1,1,0,0,0,.058-.336,2.377,2.377,0,0,1-.019-.586,3.893,3.893,0,0,1,1.334-2.506c1.277-1.334,2.564-2.736,2.487-5.108a8.146,8.146,0,0,0,5.435,3.313,2.254,2.254,0,0,1,1.757,1.488l.009.01a2.825,2.825,0,0,0,.346.585.894.894,0,0,0,.154-.729c0-.01-.01-.02-.01-.029a2.219,2.219,0,0,1,.279-2.1c.268-.47.576-.931.873-1.383a6.636,6.636,0,0,0,1.316-4.628c1.536,1.642,3.437,1.969,5.453,2.094a2.474,2.474,0,0,1,2.314,1.229.552.552,0,0,0,.077.124,7.8,7.8,0,0,0,.826.893,4.617,4.617,0,0,0-.163-.557,5.67,5.67,0,0,1-.25-.566,3.983,3.983,0,0,1,.259-3.236,16.8,16.8,0,0,0,.989-3.869,4.765,4.765,0,0,0-.2-1.4c.393.24.614.355.825.5a5.22,5.22,0,0,0,3.207.634c1.594-.058,3.207-.355,4.446.835a4.116,4.116,0,0,1,.375.423c.009.019.086-.029.134-.039-.086-.192-.183-.374-.279-.566a4.505,4.505,0,0,1-.643-1.594,7.315,7.315,0,0,1,.432-2.429,5.575,5.575,0,0,0,.106-3.361c-.135-.365-.221-.739-.384-1.267a6.607,6.607,0,0,0,4.916.288,4.251,4.251,0,0,1,3.812.269h.009l.26.2c.019.019.1-.038.23-.1-.086-.134-.154-.278-.24-.394a.555.555,0,0,0-.125-.134,2.544,2.544,0,0,1-.922-2.295,32.512,32.512,0,0,0-.211-4.109,7.8,7.8,0,0,0-.749-1.873c.384.048.72.1,1.047.125a7.365,7.365,0,0,0,4.148-.96,3.168,3.168,0,0,1,3.312-.2.844.844,0,0,0,.183.068,2.794,2.794,0,0,1,.336.067c-.039-.154-.029-.25-.077-.307a.46.46,0,0,0-.067-.077.591.591,0,0,0-.183-.163,2.92,2.92,0,0,1-1.459-2.727,8.606,8.606,0,0,0-.394-2.161c-.355-1.018-.864-1.987-1.315-3,1.815.22,3.332-.644,4.772-1.671,1-.711,1.978-1.277,3.255-.835a2.818,2.818,0,0,0,.3.076c.163.048.335.077.508.116a.665.665,0,0,0-.345-.375l-.058-.029a3.907,3.907,0,0,1-2.3-2.909,12.5,12.5,0,0,0-1.277-2.977,6.975,6.975,0,0,0-1.124-1.267,10.735,10.735,0,0,0,2.247-.855,25.457,25.457,0,0,0,2.852-2.342,2.26,2.26,0,0,1,1.843-.759,4.409,4.409,0,0,0,.8.01l.7-.029c0-.1,0-.192-.009-.288-.193-.067-.394-.144-.6-.211l-.432-.144a2.918,2.918,0,0,1-1.949-1.623,8.806,8.806,0,0,0-3.293-4.33,5.284,5.284,0,0,0,.662-.4,16.1,16.1,0,0,0,2.631-2.314c.912-1.229,1.786-2.323,3.389-2.429.116-.01.231-.01.356-.01.192,0,.4-.384.605-.585A1.7,1.7,0,0,0,191.926,116.772Zm-10.571,10.312c-.307,1.585-.423,3.227-.8,4.792-.423,1.718-1.027,3.4-1.584,5.079a47.63,47.63,0,0,1-1.652,4.59c-.739,1.613-1.69,3.13-2.554,4.676-.816,1.459-1.6,2.928-2.487,4.34a23.766,23.766,0,0,1-1.786,2.3c-1.593,1.949-3.139,3.946-4.829,5.809a33.013,33.013,0,0,1-3.342,2.977c-1.171,1-2.342,2.016-3.571,2.938-1.21.912-2.478,1.766-3.764,2.563-2.026,1.249-4.071,2.478-6.165,3.611a24.635,24.635,0,0,1-3.168,1.277c-1.959.739-3.9,1.546-5.9,2.16a46.075,46.075,0,0,1-4.829,1.085c-1.6.317-3.2.663-4.811.826-2.035.2-4.08.24-6.98.393-1.018,0-2.89.077-4.753-.028a29.051,29.051,0,0,1-3.447-.615c-1.853-.326-3.716-.624-5.559-1a25.368,25.368,0,0,1-3.14-.865c-2.4-.806-4.811-1.584-7.144-2.534a33.949,33.949,0,0,1-3.927-2.122c-1.507-.845-3.034-1.642-4.484-2.574a43.445,43.445,0,0,1-3.6-2.621,69.931,69.931,0,0,1-5.4-4.542c-1.7-1.689-3.149-3.639-4.714-5.472-.432-.5-.826-1.028-1.287-1.5-1.622-1.661-2.448-3.841-3.668-5.761-.835-1.306-1.632-2.641-2.333-4.023a33.7,33.7,0,0,1-1.354-3.323c-.729-1.93-1.526-3.84-2.122-5.818-.489-1.623-.758-3.332-1.085-5-.326-1.709-.614-3.428-.912-5.137a5.293,5.293,0,0,1-.134-1.017c-.01-3.006.086-6.011-.029-9.017-.086-2.083.547-4.023.807-6.039.192-1.5.384-3.005.72-4.474A33.49,33.49,0,0,1,66.692,99.6c.8-2.323,1.526-4.685,2.438-6.97a28.212,28.212,0,0,1,1.921-3.447c.768-1.335,1.622-2.631,2.285-4.024a21.564,21.564,0,0,1,3.14-4.282c1.43-1.747,2.755-3.6,4.34-5.2,1.6-1.623,3.466-2.986,5.213-4.474a22.424,22.424,0,0,0,1.748-1.527c1.325-1.383,3.111-2.036,4.676-3.025,1.7-1.065,3.437-2.1,5.2-3.043a23.914,23.914,0,0,1,3.169-1.258c2.342-.845,4.656-1.786,7.047-2.458,2.026-.567,4.167-.711,6.212-1.21,4.1-1.018,8.258-.384,12.377-.653,2.247-.154,4.34.5,6.491.816A39.2,39.2,0,0,1,138.819,60a94.222,94.222,0,0,1,9.074,3.217c1.949.816,3.668,2.151,5.559,3.1a31.736,31.736,0,0,1,7.192,5.128c1.143,1.037,2.477,1.862,3.63,2.88a25.225,25.225,0,0,1,2.275,2.468c1.536,1.776,3.111,3.533,4.561,5.377a30.53,30.53,0,0,1,2.112,3.341c1.143,1.892,2.314,3.764,3.361,5.713a28.621,28.621,0,0,1,1.383,3.5c.777,2.035,1.574,4.061,2.275,6.126a13.638,13.638,0,0,1,.154,1.91c.5,2.862,1.2,5.7,1.517,8.584.288,2.583.125,5.214.25,7.816A32.853,32.853,0,0,1,181.355,127.084Z" fill="#003162"/>
            <path id="Path_1536" data-name="Path 1536" d="M161.8,145.27c-1.651-4.974-3.341-9.938-5.012-14.9-1.248-3.716-2.477-7.441-3.744-11.157a1.12,1.12,0,0,0-.519-.691,9.875,9.875,0,0,0-1.6-.279c-1.028-.153-2.065-.3-3.121-.461.835-1.6,1.68-3.072,2.362-4.608a23,23,0,0,0,1.988-8.191,30.224,30.224,0,0,0-.01-3.735,29.085,29.085,0,0,0-.519-3.984,25.284,25.284,0,0,0-4.483-9.861,26.5,26.5,0,0,0-6.107-6.145,28.2,28.2,0,0,0-8.613-4.436c-1.7-.48-3.418-.874-5.262-1.345V73.017c-.1-.038-.2-.076-.307-.125-.509.778-1.018,1.556-1.44,2.209a8.338,8.338,0,0,0-1.325-.826c-.077-.038-.4.547-.749,1.028-.154-.173-.461-.356-.519-.6-.134-.547-.115-1.133-.22-1.7s-.3-1.152-.452-1.719c-.153.01-.3.019-.451.038-.048.682-.1,1.364-.134,2.046s.163,1.44-.788,1.891a6.091,6.091,0,0,0-.067-.922,10.436,10.436,0,0,0-.451-1.709c-.067-.144-.471-.153-.72-.23-.039.211-.164.451-.116.643a7.766,7.766,0,0,0,.452,1.479c.365.806-.029.9-.711.96a28.857,28.857,0,0,0-3.389.47,31.253,31.253,0,0,0-10.044,4.158,30.556,30.556,0,0,0-7.527,6.913,23.489,23.489,0,0,0-3.62,6.51,25.575,25.575,0,0,0-1.748,8.094c-.038,1.431.106,2.862.2,4.292a21.751,21.751,0,0,0,2.228,7.97c.508,1.075,1.065,2.131,1.632,3.236-1.632.172-3.188.364-4.753.5a1.519,1.519,0,0,0-1.584,1.142q-1.844,6.381-3.745,12.751c-1.239,4.2-2.516,8.383-3.754,12.579a2.181,2.181,0,0,0-.067.931,4.344,4.344,0,0,0,4.244,3.6,15.3,15.3,0,0,0,3.5-.73,39.748,39.748,0,0,1,9.852-1.709,61.581,61.581,0,0,1,11.368.346,33.4,33.4,0,0,1,6.3,1.2,1.91,1.91,0,0,0,2.554-.922c.355-.557.653-1.152,1.037-1.69.393-.557.816-.461,1.123.106a17.929,17.929,0,0,1,.864,1.795,1.323,1.323,0,0,0,1.824.922,11.52,11.52,0,0,1,1.364-.519,61.98,61.98,0,0,1,6.462-.816,60.911,60.911,0,0,1,13.135.759,75.494,75.494,0,0,1,11.071,2.746c.365.134.739.23,1.114.346.288-.567.528-1.057.787-1.537a5.991,5.991,0,0,1,2.083-2.784C161.835,146.048,161.883,145.529,161.8,145.27Zm-14.114-30.293c.336-.826.6-1.46.864-2.1a24.882,24.882,0,0,0,1.728-7.461c.039-.528.01-1.161.759-1.325C151.4,106.614,149.247,113.863,147.682,114.977Zm-18.013,12.607a12.85,12.85,0,0,1-5.924,1.834,13.97,13.97,0,0,1-6.28-.874c-.749-.307-1.45-.72-2.2-1.018-.441-.173-.969-.115-1.4-.3-.3-.135-.49-.5-.72-.759.028-.086.057-.163.086-.24-.365.086-.72.173-1.229.3.586.46,1.047.835,1.623,1.305-3.937-.528-12.915-7.691-13.443-10.744.538.3.98.586,1.46.807,1.421.662,2.88,1.267,4.292,1.968a3.238,3.238,0,0,1,1.219,1.085,20.523,20.523,0,0,0,4.369,5.012,1.334,1.334,0,0,0-.3-1.555c-.912-1.066-1.766-2.18-2.64-3.275-.039-.057-.01-.163-.01-.345,1.124.269,2.218.537,3.351.816.135-.3.269-.576.4-.874-1.411-.4-2.8-.778-4.176-1.2a1.435,1.435,0,0,1-.826-.538,24.4,24.4,0,0,1-2.593-6.519c-.192-1.037-.518-2.045-.749-3.073a6.548,6.548,0,0,1-.057-1.123c1.93.537,3.793.989,5.588,1.6.864.288,1.219-.038,1.565-.681-2.007-.6-4.023-1.21-6.03-1.825-1.526-.48-1.594-.6-1.574-2.189.019-1.469-.1-2.957.038-4.417.192-2.064.566-4.109.874-6.154a.6.6,0,0,1,.163-.269c2.775.739,5.483,1.536,8.229,2.179a40.4,40.4,0,0,0,5.569.912c2.026.164,2.141.173,2.381,2.151.259,2.065.566,4.119.864,6.184a1.166,1.166,0,0,0,.518.7c.077-.26.269-.538.231-.778-.307-2.026-.663-4.052-.989-6.068-.1-.586-.134-1.191-.211-1.921,1.161,0,2.3-.009,3.447.039.1,0,.288.5.249.729-.4,2.276-.845,4.542-1.277,6.818.778.432.817-.231.874-.586.394-2.064.739-4.148,1.076-6.222.153-.922.729-.874,1.5-.682-.71,2.295.9,3.6,2.142,5.07.537.634.989,1.344,1.545,1.949a2.243,2.243,0,0,0,2.555.115,10.654,10.654,0,0,1,3.043-2.294,7.538,7.538,0,0,0,2.295-2.257c.192-.221.029-.72.1-1.075a1.74,1.74,0,0,1,.384-.941.981.981,0,0,1,.864.029,2.881,2.881,0,0,1,1.777,2.871c-.125,1.833-.135,3.677-.25,5.511a.956.956,0,0,1-.538.72c-2.17.624-4.349,1.181-6.529,1.767-.269.067-.528.153-.835.24a1.472,1.472,0,0,0,1.891.634c1.892-.5,3.812-.9,5.733-1.345a30.82,30.82,0,0,1-3.15,9.708,2.594,2.594,0,0,1-2.1,1.67,21.348,21.348,0,0,0-2.2.557c.144.586.307,1.018,1.094.74a9.975,9.975,0,0,1,1.556-.289c-.576,1.229-2.074,1.95-1.441,3.716a19.433,19.433,0,0,0,1.652-2.045,5.5,5.5,0,0,1,3.466-2.919,32.264,32.264,0,0,0,4.282-1.661,26.962,26.962,0,0,1-12.7,9.7c.164-.365.25-.576.346-.8A2.7,2.7,0,0,0,129.669,127.584ZM98.886,114.823a5.658,5.658,0,0,1-1.44-2.66,21.5,21.5,0,0,1-1.517-7.076,7.986,7.986,0,0,0-.231-1.114c.432.259.691.442.97.586,1.834.95,3.678,1.891,5.511,2.861.192.106.461.317.48.509a34.555,34.555,0,0,0,2.987,10.4c.038.067.009.163.009.24-.067.1-.134.182-.2.269C103.245,117.521,100.96,116.311,98.886,114.823Zm20.029-31c-.864-.057-1.623-.048-2.352-.173-1.8-.3-3.582-.653-5.358-1.017-.2-.048-.365-.308-.547-.461.221-.2.5-.624.653-.576,1.968.528,3.6-.548,5.338-1.076.759-.221,1.508-.47,2.362-.739C118.723,81.16,117.389,82.4,118.915,83.819Zm1.162,11.705a1.952,1.952,0,0,1-.077.5,8.8,8.8,0,0,1-5.463-4.57c-.231-.413-.394-.673-.97-.5-1.037.308-2.132.423-3.169.73-.528.144-1.027.25-1.3-.25a2.874,2.874,0,0,1-.461-1.641,7.3,7.3,0,0,1,.9-2.026.781.781,0,0,1,.586-.356,14.6,14.6,0,0,0,5.54-1.037,9.221,9.221,0,0,0,1.411-.624c.5-.3.864-.153,1.056.307a12.219,12.219,0,0,1,.874,2.545C119.434,90.9,119.741,93.21,120.077,95.524Zm-3.409-10.793c.039,0,.068.068.269.308a28.389,28.389,0,0,1-3.341,1.1c-1.277.269-2.6.307-3.908.461-.211.029-.538.1-.605.24-.48,1.1-1.392,2.016-1.392,3.36a2.8,2.8,0,0,0,1.363,2.343,1.751,1.751,0,0,0,1.22.039c.95-.2,1.872-.528,2.813-.721a1.018,1.018,0,0,1,.864.317,11.065,11.065,0,0,0,3.783,3.927,48.794,48.794,0,0,1-12.991-3.091,32.376,32.376,0,0,1,4.484-9.132c.4-.547.893-.316,1.315-.249C112.588,83.973,114.623,84.357,116.668,84.731Zm4.1,3.582h5.867c-.183,1.114-.346,2.17-.528,3.226-.25,1.4-.528,2.794-.759,4.2-.105.634-.336,1-1.056.941-1.018-.087-2.045-.106-3.178-.154C120.989,93.671,120.883,91.021,120.768,88.313Zm13.481,9.976c.682.077,1.4-.086,2.064.058a2.771,2.771,0,0,1,1.354.854c.423.48,0,.874-.317,1.325a5.522,5.522,0,0,1-2.314,1.824,9.539,9.539,0,0,0-2,1.6c-.787.7-1.363.73-2.064-.077-.989-1.142-1.959-2.314-2.852-3.533a4.381,4.381,0,0,1-.4-1.46c.1-1.392.1-1.392,1.488-1.43.192,0,.394-.039.6-.048.961-.058,1.969-.759,2.843.413C132.914,98.183,133.692,98.222,134.249,98.289Zm-1.277-1.027a2.6,2.6,0,0,1,.01-.279c2.573-.7,5.156-1.4,7.854-2.131.173,1.075.346,2.15.547,3.408-1.21-.566-2.218-1.709-3.1-.4Zm6.884,21.709a4.548,4.548,0,0,1-.8.173c.489-1.133.94-2.112,1.334-3.121a32.239,32.239,0,0,0,1.92-7.278,1.011,1.011,0,0,1,.461-.672c2.084-.95,4.187-1.863,6.29-2.784.019-.01.047.019.115.057a26.638,26.638,0,0,1-3.274,10.514,1.6,1.6,0,0,1-.615.691C143.495,117.377,141.671,118.174,139.856,118.971Zm2.814-11.9v-5.089a1.79,1.79,0,0,1,.211-.1c.5.758,1.5,1.075,1.623,2.208.038.336.566.739.941.845a1.106,1.106,0,0,0,.912-.557,9.119,9.119,0,0,0,.672-2.88c-.01-1.085.768-1.642,1.152-2.458a4.972,4.972,0,0,1,.547-.721c.135.231.279.365.288.509.087,1.489.173,2.967.212,4.456a.8.8,0,0,1-.308.643C146.866,104.991,144.792,106.018,142.67,107.075Zm8.209-7.96a23.926,23.926,0,0,1,.24,2.89,1.074,1.074,0,0,1-.537.787c-.106-.662-.231-1.315-.3-1.978-.067-.643-.077-1.3-.125-2.2C150.466,98.817,150.85,98.942,150.879,99.115Zm-2.832-7.624c.8.384,2.266,4.119,2.582,6.712-.326-.231-.681-.346-.758-.557-.653-2.017-1.258-4.052-1.872-6.088C148,91.539,148.027,91.51,148.047,91.491Zm-.932,1c.519,1.449,1,2.918,1.46,4.388a.947.947,0,0,1-.173.7,8.346,8.346,0,0,1-1.219,1.489c-1.181,1.008-.884,2.4-1.1,3.677a7.623,7.623,0,0,1-.441,1.268c-.864-1.153-1.633-2.084-2.295-3.083A5.954,5.954,0,0,1,142.535,99a40.776,40.776,0,0,1-.633-4.033,1.08,1.08,0,0,1,.48-.855c1.344-.7,2.727-1.334,4.119-1.939A.717.717,0,0,1,147.115,92.49Zm-7.393-9.861c1.258,1.248,2.592,2.429,3.735,3.792a46.316,46.316,0,0,1,2.592,3.841c.308.451.26.768-.268,1.018-1.383.633-2.756,1.306-4.225,2.007a32.739,32.739,0,0,0-4.791-10.073c.931-.288,1.709-.537,2.506-.758A.584.584,0,0,1,139.722,82.629Zm-7.854-4.782,6.251,3.37c-.039.135-.068.259-.1.384-.615.192-1.229.394-1.844.548a.6.6,0,0,1-.461-.173q-1.916-1.771-3.812-3.563a1.339,1.339,0,0,1-.2-.326C131.762,78.01,131.82,77.924,131.868,77.847Zm2.919,4.695c-2.209.394-4.254.749-6.357,1.124a7.677,7.677,0,0,0-.508-6.222A19.216,19.216,0,0,1,134.787,82.542Zm-6.933,3.092a1.345,1.345,0,0,1,.778-.912c2.295-.423,4.609-.74,7.019-1.114a27.575,27.575,0,0,1,3.745,6.884c.307.836.557,1.69.912,2.506.2.471.086.73-.346.855-2.208.605-4.4,1.3-6.635,1.748-2.093.422-4.234.585-6.356.854a9.57,9.57,0,0,1-1.066.01c.336-1.844.643-3.515.941-5.195C127.173,89.388,127.461,87.5,127.854,85.634Zm-3.7-7.873a13.853,13.853,0,0,1,.729-1.2,8.216,8.216,0,0,1,.212,1.431,7.44,7.44,0,0,1-.279,1.325c-.6-.019-.806-.365-.778-.893A1.634,1.634,0,0,1,124.158,77.761ZM126.5,85.74c.566,0,.528.4.5.787-.029.48-.125.922-.768.912-1.316-.01-2.641,0-3.966,0h-1.3c-1.306.01-1.469-.154-1.584-1.7Zm-7.135-9.026c.231,1.575-.057,2.074-1.382,2.525-1.575.528-3.14,1.037-4.724,1.537a2.006,2.006,0,0,1-.989.038A14.591,14.591,0,0,1,119.366,76.714Zm-6.106,1.133c.067.106.134.2.2.307-.22.173-.451.327-.653.519-.969.883-1.968,1.757-2.89,2.7-.528.528-.989.893-1.766.451a3.854,3.854,0,0,0-1.124-.288c-.019-.106-.048-.221-.067-.326C109.064,80.084,111.157,78.961,113.26,77.847Zm-7.989,4.791a.982.982,0,0,1,.768-.23c.768.182,1.517.451,2.41.73a30.308,30.308,0,0,0-4.762,9.515c-1.642-.7-3.188-1.364-4.734-2.017C100.413,87.372,102.8,84.962,105.271,82.638Zm-6.913,8.949c1.738.759,3.389,1.469,5.05,2.189a37.3,37.3,0,0,0-.941,12.646c-1.469-.788-2.774-1.45-4.042-2.18a15.316,15.316,0,0,1-2.131-1.45,1.427,1.427,0,0,1-.519-1.027,29.264,29.264,0,0,1,1.68-8.094C97.715,92.979,98.041,92.317,98.358,91.587Zm-4.292,8.555c.451-1.968.9-3.946,1.459-5.895a19.289,19.289,0,0,1,1.172-2.67,3.474,3.474,0,0,1,.422-.585l.231.144a27.7,27.7,0,0,0-2.66,10.2C94.028,101.131,93.884,100.949,94.066,100.142ZM96.62,114.17a25.747,25.747,0,0,1-2.7-11.56c.086-.039.173-.087.259-.125.173.326.5.643.509.979a27.591,27.591,0,0,0,2.18,10.322.867.867,0,0,1,.019.317C96.8,114.122,96.716,114.151,96.62,114.17ZM157.1,144.435c-3.8-.96-7.6-1.978-11.436-2.862a44.038,44.038,0,0,0-9.236-1.3c-.941-.009-1.892-.259-2.823-.182a24.751,24.751,0,0,0-8.517,1.747,2,2,0,0,1-1.066.125,9.671,9.671,0,0,0-3.639.192,2.141,2.141,0,0,1-1.267-.153,18.934,18.934,0,0,0-6.9-1.921,42.989,42.989,0,0,0-5.079-.192,42.634,42.634,0,0,0-5.617.691c-3.245.615-6.462,1.4-9.708,2.007-2.131.394-4.3.576-6.452.845a6.185,6.185,0,0,1-1.046-.067c2.467-8.334,4.877-16.5,7.287-24.648,1.815-.23,3.562-.48,5.32-.662a1.319,1.319,0,0,1,.979.355c1.229,1.306,2.343,2.746,3.629,3.994a28.008,28.008,0,0,0,11.715,6.808A32.139,32.139,0,0,0,124.6,130.58a27.228,27.228,0,0,0,10.361-2.526,39.723,39.723,0,0,0,6.654-3.888,43.173,43.173,0,0,0,4.887-4.936.967.967,0,0,1,1.066-.413,29.273,29.273,0,0,0,3.994.442c.586.029.643.4.768.759q1.916,5.645,3.821,11.3c1.287,3.8,2.583,7.6,3.86,11.4.288.864.519,1.738.817,2.717C159.511,145.078,158.311,144.742,157.1,144.435Z" fill="#003162"/>
            <g id="Group_377" data-name="Group 377">
              <path id="Path_1537" data-name="Path 1537" d="M126.366,63.551c-.09-.872-.21-1.743-.251-2.617-.011-.224.274-.67.348-.655.434.091,1.224-.434,1.255.4.08,2.123.027,4.252.027,6.361-1.622.327-1.627.321-2.132-1.164a8.273,8.273,0,0,0-.771-1.75,14.877,14.877,0,0,0,.017,1.993c.145,1.067.189,1.061-.844,1.049-.17,0-.341-.016-.608-.03-.017-.382-.045-.74-.047-1.1-.01-1.673-.031-3.345,0-5.017,0-.261.265-.735.413-.738.512-.009,1.2-.358,1.456.478.285.946.576,1.89.864,2.835Z" fill="#003162"/>
              <path id="Path_1538" data-name="Path 1538" d="M88.552,77.094c-.428-.336-.884-.643-1.28-1.014-1.063-1-1.049-1.054.2-1.987l4.56,4.868a1.23,1.23,0,0,1-.134.254c-.916.957-.919.959-2.088.342a10.188,10.188,0,0,0-2.033-.9c.609.624,1.209,1.256,1.832,1.866.27.265.545.52.122.832-.31.228-.639.751-1.088.272-1.272-1.359-2.5-2.758-3.765-4.126-.315-.341-.375-.616.006-.937.362-.3.633-.794,1.239-.421.7.431,1.421.829,2.133,1.241Z" fill="#003162"/>
              <path id="Path_1539" data-name="Path 1539" d="M154.7,70.179c1.363.949,1.365.95.841,2.427a4.949,4.949,0,0,0-.382,1.635,14.77,14.77,0,0,0,1.223-1.7c.31-.58.618-.557,1.088-.266.533.329.482.737.165,1.153-.742.978-1.5,1.941-2.263,2.9-.441.559-.892,1.11-1.421,1.767l-1.355-.95,1.093-3.081-.141-.092-1.774,2.394-1.2-.865Z" fill="#003162"/>
              <path id="Path_1540" data-name="Path 1540" d="M78.041,91.117a1.944,1.944,0,0,0-3.255-.4,24.534,24.534,0,0,0-1.316,2.612c2.1.989,4.11,1.949,6.174,2.928.269-.528.49-.979.749-1.488-.71-.317-1.315-.557-1.891-.864-.192-.1-.3-.355-.433-.538.231-.134.471-.384.682-.365a3.027,3.027,0,0,1,1.133.365c.624.356,1.076.327,1.325-.432.077-.23.192-.461.327-.778C80.384,91.808,79.318,91.491,78.041,91.117Zm-1.191,1.92c-.49-.173-.96-.336-1.44-.5.115-.673.4-.989,1.008-.807C77.071,91.923,77.138,92.374,76.85,93.037Z" fill="#003162"/>
              <path id="Path_1541" data-name="Path 1541" d="M73.115,106.114c-1.114-1.219-2.6-.989-3.159.173a8.51,8.51,0,0,0-.49,2.679c-.019.163.308.5.519.547.778.183,1.565.288,2.352.4,1.21.182,2.42.336,3.687.509.116-.605.192-1.009.3-1.527-.893-.173-1.748-.336-2.65-.509.029-.682.269-1.008,1.008-.855a5.881,5.881,0,0,0,1.364.106.663.663,0,0,0,.5-.317,8.975,8.975,0,0,0,.221-1.21Zm-.807,2.362c-.585-.355-.988-.6-1.4-.854.134-.192.3-.557.4-.557a3.012,3.012,0,0,1,1.152.4C72.549,107.535,72.395,107.987,72.308,108.476Z" fill="#003162"/>
              <path id="Path_1542" data-name="Path 1542" d="M105.021,66.882a1.855,1.855,0,0,0-2.265-2.391,21.611,21.611,0,0,0-2.564,1.1c.941,2.132,1.834,4.148,2.727,6.174.489-.192.9-.365,1.478-.595-.317-.807-.633-1.594-.941-2.362.519-.5.9-.355,1.191.182.173.327.25.711.442,1.018.134.211.422.5.6.471a7.986,7.986,0,0,0,1.4-.538C106.375,68.889,105.751,67.967,105.021,66.882Zm-2.314.662c-.086-.547-.163-1.065-.24-1.574.327.134.769.182.961.422C103.888,66.968,103.562,67.314,102.707,67.544Z" fill="#003162"/>
              <path id="Path_1543" data-name="Path 1543" d="M132.089,61.1a11.282,11.282,0,0,0-2.18-.384c-.211-.01-.6.364-.643.6-.269,1.777-.48,3.563-.653,5.349-.029.249.182.72.355.749a13.367,13.367,0,0,0,2.612.316,1.283,1.283,0,0,0,1.248-1.123c.24-1.229.432-2.458.586-3.341C133.423,61.831,133.126,61.39,132.089,61.1Zm-.8,4.724c-.048.22-.49.345-.749.509a2,2,0,0,1-.24-.711c.086-.855.221-1.7.365-2.535a6.34,6.34,0,0,1,.268-.941c.106-.029.221-.057.337-.086.153.326.46.662.441.97A17.041,17.041,0,0,1,131.292,65.826Z" fill="#003162"/>
              <path id="Path_1544" data-name="Path 1544" d="M86.744,84.549a4.835,4.835,0,0,1-.8.8.765.765,0,0,1-.7,0q-1.875-1.579-3.689-3.229c-1.087-.984-1.068-1.075.17-2.086L83.568,81.7l.766-.812c-.516-.43-.962-.82-1.429-1.185-.574-.449-.281-.817.063-1.219.366-.43.631-.4,1.05,0,1.23,1.159,2.52,2.253,3.78,3.381.23.206.429.449.673.709l-1.107.99-.193.322a15.643,15.643,0,0,0-1.035-1.356c-.647-.688-.757-.655-1.385.222Z" fill="#003162"/>
              <path id="Path_1545" data-name="Path 1545" d="M171.9,89.782a1.711,1.711,0,0,0-2.227-.672,25.55,25.55,0,0,0-2.958,1.594,8.477,8.477,0,0,0-1.344,1.459,8.711,8.711,0,0,0,.768,1.728,1.741,1.741,0,0,0,2.6.586c.769-.374,1.489-.893,2.276-1.21C172.618,92.605,173.088,91.337,171.9,89.782Zm-1.248,1.882c-.912.461-1.805.95-2.746,1.354-.231.105-.586-.087-.883-.135.134-.269.2-.643.422-.787A22.656,22.656,0,0,1,170,90.713c.384-.173.941-.4,1.431.567C171.168,91.4,170.908,91.529,170.649,91.664Z" fill="#003162"/>
              <path id="Path_1546" data-name="Path 1546" d="M170.856,112.346l.255-1.276-.119.044a10.307,10.307,0,0,1-.22-2.029c.073-.877.866-1.11,1.577-1.2a31.077,31.077,0,0,1,3.341-.222,2.08,2.08,0,0,1,2.091,2.892,1.516,1.516,0,0,1-1.671,1.284c-.255-.018-.675-.3-.693-.49a1.48,1.48,0,0,1,.343-.982,3.032,3.032,0,0,1,.913-.508c-.326-.576-.586-.794-1.266-.614a27.135,27.135,0,0,1-2.8.318c-.223.035-.429.355-.576.587-.037.058.191.409.285.4.338-.02.9-.054.963-.226.216-.637.681-.378.984-.3.2.048.418.434.444.687.119,1.186.1,1.2-1.076,1.339C172.782,112.152,171.934,112.232,170.856,112.346Z" fill="#003162"/>
              <path id="Path_1547" data-name="Path 1547" d="M74.238,97.823c-.636-1.111-2.425-1.672-1.075-3.316.6.592,1.177,1.225,1.826,1.769a2.06,2.06,0,0,0,1.121.455c1.055.061,2.117.021,3.176.021-.037,1.238-.253,1.455-1.35,1.453H76.777l-.063.248a4.968,4.968,0,0,0,.8.534c1.035.437,1.041.423.585,1.4-.059.126-.114.254-.219.487L71.673,98.58c.062-.291.109-.51.154-.729.146-.7.5-.886,1.148-.514A9.53,9.53,0,0,0,74.238,97.823Z" fill="#003162"/>
              <path id="Path_1548" data-name="Path 1548" d="M166.955,89.413c-.788.644-1.543,1.234-2.625.66a2.446,2.446,0,0,1-1.321-2.417,1.842,1.842,0,0,1,.669-1.114c1.064-.776,2.191-1.467,3.305-2.174a1.374,1.374,0,0,1,1.751.2,2.664,2.664,0,0,1,1.146,2.207,1.933,1.933,0,0,1-.384,1.013c-.65.823-1.12.685-1.894-.532l.433-.5.39-.446c-.218-.608-.544-.7-1.055-.345-.8.556-1.648,1.047-2.419,1.639a1.038,1.038,0,0,0-.36.893c.218.477.594.237.913-.024a.58.58,0,0,1,.992.194C166.637,88.913,166.793,89.151,166.955,89.413Z" fill="#003162"/>
              <path id="Path_1549" data-name="Path 1549" d="M144.028,67a5.663,5.663,0,0,0,.055-.955,1.737,1.737,0,0,0-.282-.546c-.2.118-.493.187-.587.362a12.034,12.034,0,0,0-.583,1.428,16.559,16.559,0,0,0-.638,1.779c-.051.2.172.478.269.72.217-.1.51-.137.639-.3.719-.932.705-.942,1.846-.251-.2.783-.466,1.62-1.314,1.855a2.373,2.373,0,0,1-2.615-.679,2.413,2.413,0,0,1-.39-1.827,21.11,21.11,0,0,1,1.352-3.422,1.885,1.885,0,0,1,2.665-.76,1.915,1.915,0,0,1,1.3,2.4c-.139.449-.416.688-.911.513C144.566,67.221,144.307,67.112,144.028,67Z" fill="#003162"/>
              <path id="Path_1550" data-name="Path 1550" d="M121.248,61.111c-.278-.989-1.027-.624-1.613-.653-.662-.028-.633.538-.7.98q-.2,1.268-.374,2.535c-.154,1.094-.288,2.179-.442,3.341h1.6c.048-.471.086-.893.124-1.287,1.162-.2,1.191-.182,1.518,1.076h1.622C122.381,65.038,121.786,63.08,121.248,61.111Zm-.969,1.383q.229,1.023.461,2.074C119.9,64.654,119.741,64.069,120.279,62.494Z" fill="#003162"/>
              <path id="Path_1551" data-name="Path 1551" d="M156.588,78.763c.4.814.442.81,1.691-.2.178.159.372.318.548.495s.34.376.5.551a1.949,1.949,0,0,1-2.377,1.154,2.464,2.464,0,0,1-1.842-1.97,2.078,2.078,0,0,1,.494-1.387,29.617,29.617,0,0,1,2.19-2.418,1.965,1.965,0,0,1,3.085.029c1.012,1.155.921,2.178-.4,3.247l-1.043-1.117c.166-.181.341-.289.382-.435a3.954,3.954,0,0,0,.073-.766c-.277.024-.635-.054-.814.091a11.983,11.983,0,0,0-1.346,1.339C157.328,77.821,156.967,78.3,156.588,78.763Z" fill="#003162"/>
              <path id="Path_1552" data-name="Path 1552" d="M98.588,67.458c-.518-.634-.989-.423-1.574-.144-.615.288-.663.7-.5,1.258.586,1.93,1.153,3.86,1.767,5.9l1.344-.854c-.115-.423-.211-.807-.365-1.383.461-.038,1.047-.24,1.2-.067.777.893,1.373.345,2.064-.1C101.181,70.5,99.865,68.994,98.588,67.458Zm-.614,1.2c.605.836,1.075,1.479,1.536,2.122C98.78,71.366,98.31,70.761,97.974,68.658Z" fill="#003162"/>
              <path id="Path_1553" data-name="Path 1553" d="M114.365,63.085c-.611.243-1.23.7-1.7-.253-.046-.091-.488.015-.746.03.047.226.019.571.154.656a5.31,5.31,0,0,0,1.459.68c1.4.352,1.705,1.59,1.594,2.76a1.987,1.987,0,0,1-2,1.455c-1.291.061-1.6-.129-1.959-1.195-.078-.236-.14-.479-.225-.774.75-.188,1.468-.66,1.824.476.032.105.474.082.726.118-.007-.332.119-.808-.051-.967a3.556,3.556,0,0,0-1.223-.584c-1.184-.428-1.859-1.167-1.882-2.1-.03-1.209.7-1.957,2.05-2.1A2.046,2.046,0,0,1,114.365,63.085Z" fill="#003162"/>
              <path id="Path_1554" data-name="Path 1554" d="M140.747,65.155c-.794-.125-1.642-.038-1.438-1.39l-.977.3a2.708,2.708,0,0,0,.321.869c.617.714,1.33,1.32,1.275,2.426a2,2,0,0,1-3.214,1.725c-1-.573-1.233-1.179-.786-2.1.1-.2.5-.436.651-.376a1.97,1.97,0,0,1,.793.681,3.27,3.27,0,0,1,.315.851c.191-.069.539-.126.546-.21a1.94,1.94,0,0,0-.119-.97,8.364,8.364,0,0,0-.859-1.282,2.009,2.009,0,0,1,.025-2.657,1.916,1.916,0,0,1,2.268-.423c.851.266,1.215.859,1.2,1.953C140.745,64.721,140.747,64.893,140.747,65.155Z" fill="#003162"/>
              <path id="Path_1555" data-name="Path 1555" d="M80.753,84.7a1.434,1.434,0,0,0-.5-.163,3.47,3.47,0,0,0-.692.208c.167.218.308.586.507.621a1.9,1.9,0,0,0,.98-.207c1.535-.646,2.257-.537,3.317.609a1.52,1.52,0,0,1,.375.816,2.489,2.489,0,0,1-1.336,2.34,1.855,1.855,0,0,1-2.21-.547c.424-.493.5-1.589,1.6-.755.073.056.443-.185.589-.361a.544.544,0,0,0-.133-.49,2.838,2.838,0,0,0-1.192-.2,13.365,13.365,0,0,0-1.28.485,2.293,2.293,0,0,1-2.607-1.381,1.925,1.925,0,0,1,.993-2.314,2.1,2.1,0,0,1,2.392.18Z" fill="#003162"/>
              <path id="Path_1556" data-name="Path 1556" d="M92.8,72.787c-.5-.423-.969-1.123-1.517-1.2-.528-.077-1.152.489-1.728.777-.019.01-.029.048-.1.164q1.468,3.053,2.919,6.106c1.229-.614,1.219-.614.855-1.7a.6.6,0,0,1,.192-.557c.259-.144.729-.327.873-.211.864.729,1.373.259,1.882-.48C95.055,74.726,93.922,73.757,92.8,72.787Zm-1.353.586c.633.633,1.113,1.1,1.6,1.584C92.28,75.533,92.04,75.312,91.445,73.373Z" fill="#003162"/>
              <path id="Path_1557" data-name="Path 1557" d="M169.929,103.637l6.682-1.208.648,3.6c-1.3.3-1.3.3-1.832-1.756l-.985.309.237,1.938-1.328.145-.4-1.88-1.351.236.319,2.127-1.327.138Z" fill="#003162"/>
              <path id="Path_1558" data-name="Path 1558" d="M71.271,111.045v1.15a10.13,10.13,0,0,0-.959.78.921.921,0,0,0,.357.493c.592.237.772-.292,1.06-.636a8.27,8.27,0,0,1,1.421-1.556,1.922,1.922,0,0,1,2.436.317,2.271,2.271,0,0,1,.233,2.8c-.423.774-.888.93-2.114.683a3.45,3.45,0,0,1-.055-.395c-.01-.257,0-.515,0-.82a3.026,3.026,0,0,0,.741-.212,1,1,0,0,0,.464-.529c.037-.16-.153-.518-.282-.539a1,1,0,0,0-.783.172,13.742,13.742,0,0,0-1.1,1.427,2.311,2.311,0,0,1-2.505.769,2.124,2.124,0,0,1-1.1-2.4A1.861,1.861,0,0,1,71.271,111.045Z" fill="#003162"/>
              <path id="Path_1559" data-name="Path 1559" d="M158.124,82.183l5.033-4.552,2.55,2.686-1.1.946-1.242-1.45-1.039.628,1.324,1.7-1,.693L161.4,81.682c-1.175.646-1.175.646.3,2.429l-.954.891Z" fill="#003162"/>
              <path id="Path_1560" data-name="Path 1560" d="M149.979,75.159l-3.14-1.943c.264-.449.5-.888.768-1.3.846-1.292,1.727-2.561,2.549-3.867.266-.424.514-.483.9-.233.815.523,1.631,1.043,2.663,1.7-.472.347-.866.865-1.219.839-.44-.032-.847-.513-1.256-.792-.831.857-.83.881-.027,1.448.93.657.936.71.175,1.708-1.732-.949-1.732-.949-2.459.117a8.551,8.551,0,0,0,.794.612C150.771,74.084,150.776,74.076,149.979,75.159Z" fill="#003162"/>
              <path id="Path_1561" data-name="Path 1561" d="M173.676,114.843h-1.248c0,.5-.021.959.006,1.41.03.5-.2.647-.672.637-.436-.009-.621-.16-.609-.613.023-.863.029-1.728-.005-2.591-.019-.472.176-.6.606-.593q2.765.018,5.528,0c.465,0,.6.2.582.628-.02.662,0,1.325,0,1.987,0,1.015-.028,1.036-1.212.879v-1.728h-1.119c-.608.478.565,1.822-.918,1.805C173.206,116.647,174.273,115.387,173.676,114.843Z" fill="#003162"/>
              <path id="Path_1562" data-name="Path 1562" d="M109.711,63.592c-1.247.435-1.24.433-.88,1.59.33,1.06.586,2.147.98,3.182.314.824-.22.916-.74,1.1-.582.2-.71-.122-.847-.613-.4-1.451-.874-2.884-1.328-4.356l-1.115.276-.488-1.228c1.182-.39,2.317-.856,3.5-1.126C109.762,62.19,109.35,63.159,109.711,63.592Z" fill="#003162"/>
              <path id="Path_1563" data-name="Path 1563" d="M174.224,95l-4.942,2.06a9.646,9.646,0,0,0,.427,1.155c.226.433.143.67-.3.874s-.775.247-.983-.268c-.352-.874-.7-1.752-1.091-2.744.574-.233,1.114-.448,1.652-.67,1.243-.513,2.506-.984,3.719-1.562.739-.353,1.13-.262,1.285.566A3.826,3.826,0,0,0,174.224,95Z" fill="#003162"/>
              <path id="Path_1564" data-name="Path 1564" d="M171.053,102.783l-1.241.283c-.31-.918-.637-1.743-.846-2.6-.063-.257.133-.8.326-.863,1.945-.652,3.914-1.231,5.946-1.852l.483,1.567c-1.456.46-2.8.937-4.173,1.3-.871.228-1.032.648-.688,1.408A4.855,4.855,0,0,1,171.053,102.783Z" fill="#003162"/>
              <path id="Path_1565" data-name="Path 1565" d="M76.805,86.93c1.722.957,3.354,1.895,5.016,2.776,1,.529,1.033.367.439,1.51-.064.124-.146.238-.282.458-1.017-.555-2.016-1.09-3.006-1.644a18.536,18.536,0,0,0-2.087-1.191c-.805-.321-.837-.72-.406-1.344C76.59,87.335,76.676,87.156,76.805,86.93Z" fill="#003162"/>
              <path id="Path_1566" data-name="Path 1566" d="M76.9,105.449l-6.691-1.6.406-1.515c.745.156,1.507.305,2.264.476,1.112.25,2.21.578,3.332.754.888.139,1.127.507.784,1.31A3.755,3.755,0,0,0,76.9,105.449Z" fill="#003162"/>
              <path id="Path_1567" data-name="Path 1567" d="M145.956,72.8l-1.392-.686c.972-1.931,1.906-3.829,2.884-5.7.328-.628.763-.117,1.083.054.2.1.444.525.377.658C147.973,69,146.988,70.841,145.956,72.8Z" fill="#003162"/>
            </g>
            <path id="Path_1568" data-name="Path 1568" d="M123.19,72.085a3,3,0,0,1,.108-1.1,1.085,1.085,0,0,1,.807-.5c.194,0,.554.412.56.647a6.754,6.754,0,0,1-.214,1.938c-.077.283-.483.475-.74.709a6,6,0,0,1-.482-.922,2.6,2.6,0,0,1-.014-.77Z" fill="#003162"/>
            <path id="Path_1569" data-name="Path 1569" d="M122.775,119.951a18.3,18.3,0,0,0-2.318-.153c-.94.039-1.164-.63-1.342-1.245a6.692,6.692,0,0,1,1.556-6.387,11.036,11.036,0,0,1,1.962-1.645.7.7,0,0,1,.673.017c1.4,1.319,2.888,2.615,3.346,4.592a5.709,5.709,0,0,1-.519,4.244,1.677,1.677,0,0,1-1.126.553A17.769,17.769,0,0,1,122.775,119.951Z" fill="#003162"/>
            <path id="Path_1570" data-name="Path 1570" d="M126.814,119.57c1.337-3.105.65-5.819-1.812-8.3a16.522,16.522,0,0,1,1.545-1.127.85.85,0,0,1,.783.063c1.992,1.757,3.687,3.715,3.4,6.613a7.526,7.526,0,0,1-.841,2.582c-.127.25-.839.257-1.288.276A17.692,17.692,0,0,1,126.814,119.57Z" fill="#003162"/>
            <path id="Path_1571" data-name="Path 1571" d="M119.58,109.579l1.515,1.172c-.507.543-.988.994-1.394,1.5a8.175,8.175,0,0,0-1.508,4.4,6.233,6.233,0,0,0,.345,1.912c.107.467.01.683-.524.717-1.581.1-1.9-.229-2.333-1.785A7.24,7.24,0,0,1,119.58,109.579Z" fill="#003162"/>
            <path id="Path_1572" data-name="Path 1572" d="M122.847,127.2a4.883,4.883,0,0,1-2.331-5.982,1.182,1.182,0,0,1,.828-.612c.884-.079,1.782.007,2.671-.034a.754.754,0,0,1,.854.647,4.735,4.735,0,0,1-1.077,4.924C123.454,126.487,123.143,126.863,122.847,127.2Z" fill="#003162"/>
            <path id="Path_1573" data-name="Path 1573" d="M112.24,117.895c-1.674.349-1.949.164-2.446-1.346a7.107,7.107,0,0,1,3.031-7.859c.241-.152.49-.292.777-.462.187.156.391.309.575.484s.348.372.581.624C112.292,111.727,111.214,114.523,112.24,117.895Z" fill="#003162"/>
            <path id="Path_1574" data-name="Path 1574" d="M117.654,110c-2.377,2.386-3.557,5.135-2.367,8.52-1.791.442-2.6-.183-2.728-2.194a7.174,7.174,0,0,1,3.189-6.81C116.753,108.826,116.793,108.848,117.654,110Z" fill="#003162"/>
            <path id="Path_1575" data-name="Path 1575" d="M128.593,110.445l1.22-.719c1.466,1.355,2.951,2.642,3.5,4.628a7.244,7.244,0,0,1-.526,4.841c-.039.093-.159.212-.245.215-.575.019-1.152.01-1.863.01C132.323,115.941,131.2,113.082,128.593,110.445Z" fill="#003162"/>
            <path id="Path_1576" data-name="Path 1576" d="M131.114,110.1c.648-.589,1.053-.727,1.73-.182a8.782,8.782,0,0,1,2.962,4.2,5.608,5.608,0,0,1-.6,4.548c-.189.339-.925.371-1.5.451A7.707,7.707,0,0,0,131.114,110.1Z" fill="#003162"/>
            <path id="Path_1577" data-name="Path 1577" d="M124.477,110.89A8.315,8.315,0,0,1,128,106.372a.694.694,0,0,1,.652.091c.857.834,1.677,1.708,2.632,2.7-.383.148-.689.335-.744.278-.9-.931-1.486-.018-2.161.347-.075.04-.146.086-.214.127C126.881,109.086,127.093,108.7,124.477,110.89Z" fill="#003162"/>
            <path id="Path_1578" data-name="Path 1578" d="M125.537,120.479a3.156,3.156,0,0,1,.764.374c1.816,1.611,2.277,3.6,1.568,6.168-.853-.5-1.629-.928-2.363-1.418a.735.735,0,0,1-.14-.657A7.509,7.509,0,0,0,125.537,120.479Z" fill="#003162"/>
            <path id="Path_1579" data-name="Path 1579" d="M119.9,120.82a4.9,4.9,0,0,0,.107,4.2c.311.642.171,1.008-.4,1.281-.455.216-.934.382-1.4.57A5.1,5.1,0,0,1,119.9,120.82Z" fill="#003162"/>
            <path id="Path_1580" data-name="Path 1580" d="M116.873,120.725c-1.526,1.471-1.566,3.359-1.412,5.244-1.332.674-1.626.516-1.648-.877a5.866,5.866,0,0,1,1.8-4.542C116.075,120.108,116.422,120.051,116.873,120.725Z" fill="#003162"/>
            <path id="Path_1581" data-name="Path 1581" d="M130.573,126.025c.164-1.914.067-3.817-1.429-5.361a.965.965,0,0,1,1.441.059,5.933,5.933,0,0,1,1.6,5.036C132.1,126.481,131.761,126.531,130.573,126.025Z" fill="#003162"/>
            <path id="Path_1582" data-name="Path 1582" d="M134.019,126.326a3.928,3.928,0,0,1-.89-.161c-.164-.071-.391-.328-.366-.458a6.422,6.422,0,0,0-1.334-5.067,1.128,1.128,0,0,1-.1-.231c.379-.411.651-.381,1.065.014C134.122,122.066,134.324,124.1,134.019,126.326Z" fill="#003162"/>
            <path id="Path_1583" data-name="Path 1583" d="M123.866,110.257l-2.043-2.866,2.026-1.464c.394.488.819.958,1.166,1.478a.872.872,0,0,1,.058.737C124.748,108.8,124.347,109.429,123.866,110.257Z" fill="#003162"/>
            <path id="Path_1584" data-name="Path 1584" d="M122.626,109.489c-.731.945-1.216.791-1.781.182-.83-.895-1.731-1.723-2.608-2.585,1.229-1.04,1.246-1.055,2.256.006C121.234,107.87,121.923,108.7,122.626,109.489Z" fill="#003162"/>
            <path id="Path_1585" data-name="Path 1585" d="M118.411,120.131l.536.5a6.493,6.493,0,0,0-1.721,5.672l-.88.341C115.431,124.648,116.26,122.017,118.411,120.131Z" fill="#003162"/>
            <path id="Path_1586" data-name="Path 1586" d="M115.3,119.939a6.859,6.859,0,0,0-2.192,5.217c0,.187-.324.369-.589.65a5.606,5.606,0,0,1,1.553-6.087c.217-.212.756-.093,1.146-.126Z" fill="#003162"/>
            <path id="Path_1587" data-name="Path 1587" d="M127.23,120.384c.309.07.718.037.912.226a4.986,4.986,0,0,1,1.776,3.842c-.026.684-.005,1.37-.005,2.183l-1.14-.273a6.456,6.456,0,0,0-1.645-5.709Z" fill="#003162"/>
            <path id="Path_1588" data-name="Path 1588" d="M116.653,106.337l2.48,2.624-.872.6c-.82-.832-1.617-2.072-2.855-.661l-.978-.9Z" fill="#003162"/>
            <path id="Path_1589" data-name="Path 1589" d="M134.536,90.4c-.387.706.19,1.266.552,1.929a1.439,1.439,0,0,1-.067,1.131c-.071.15-.6.158-.9.114-.961-.141-1.691-.5-1.479-1.712.033-.193-.253-.443-.4-.661-.029-.042-.1-.057-.149-.083-.516-.256-1.2-.524-1.05-1.172a2.243,2.243,0,0,1,1.058-1.135C133.291,88.1,134.548,88.878,134.536,90.4Z" fill="#003162"/>
            <text id="KUNIAMUTHUR" transform="translate(122.403 158.121)" fill="#003162" font-size="4.662" font-family="Arial-BoldMT, Arial" font-weight="700"><tspan x="-17.481" y="0">KUNIAMUTHUR</tspan></text>
            <text id="COIMBATORE_-_641_008" data-name="COIMBATORE - 641 008" transform="translate(122.403 163.652)" fill="#003162" font-size="4.662" font-family="Arial-BoldMT, Arial" font-weight="700"><tspan x="-26.212" y="0">COIMBATORE - 641 008</tspan></text>
            <g id="Group_380" data-name="Group 380">
              <g id="Group_379" data-name="Group 379">
                <g id="Group_378" data-name="Group 378">
                  <path id="Path_1590" data-name="Path 1590" d="M100.288,125.183c-.691.135-1.037.192-1.757.3l1.017-.922c-.143-.134-.211-.192-.355-.326-.921.826-1.392,1.229-2.343,2.035.154.144.231.212.385.356.288-.25.432-.375.71-.625.278-.028.422-.038.691-.076-.22.576-.326.864-.537,1.45l.528.432c.221-.788.345-1.181.6-1.95.634-.086.951-.144,1.565-.259C100.586,125.433,100.489,125.356,100.288,125.183Z" fill="#003162"/>
                  <path id="Path_1591" data-name="Path 1591" d="M102.179,126.652c-.537.605-.816.913-1.373,1.517.221-.844.336-1.267.6-2.1-.154-.116-.231-.164-.375-.279-.854.874-1.3,1.316-2.179,2.189.153.116.23.183.384.3.566-.576.854-.864,1.411-1.44-.24.816-.355,1.229-.566,2.074.172.115.259.182.432.307.835-.922,1.238-1.383,2.045-2.314C102.4,126.806,102.333,126.748,102.179,126.652Z" fill="#003162"/>
                  <path id="Path_1592" data-name="Path 1592" d="M103.888,127.728a1.172,1.172,0,0,0-.508-.183,1.126,1.126,0,0,0-.432.039,1.976,1.976,0,0,0-.461.2,2.345,2.345,0,0,0-.6.538,1.6,1.6,0,0,0-.471,1.056.954.954,0,0,0,.509.826,1.233,1.233,0,0,0,1.047.154,1.965,1.965,0,0,0,.989-.759,1.714,1.714,0,0,0,.4-1.1A.9.9,0,0,0,103.888,127.728Zm-.374,1.594a1.4,1.4,0,0,1-.663.528.645.645,0,0,1-.6-.058.519.519,0,0,1-.269-.48,1.3,1.3,0,0,1,.346-.72,1.467,1.467,0,0,1,.663-.509.668.668,0,0,1,.576.058.529.529,0,0,1,.259.461A1.279,1.279,0,0,1,103.514,129.322Z" fill="#003162"/>
                  <path id="Path_1593" data-name="Path 1593" d="M107.336,129.658c-.557.672-.846,1-1.441,1.651.288-.8.432-1.2.73-2-.2-.1-.307-.154-.509-.259-.615.624-.922.922-1.565,1.527.336-.759.509-1.143.864-1.9l-.432-.24c-.509,1.1-.768,1.661-1.258,2.775.2.115.308.163.509.279.7-.653,1.047-.989,1.719-1.661-.327.845-.48,1.277-.787,2.141.2.1.307.144.508.24.874-.922,1.3-1.392,2.113-2.343Z" fill="#003162"/>
                  <path id="Path_1594" data-name="Path 1594" d="M107.259,132.375c.489-.874.72-1.315,1.19-2.189-.172-.077-.259-.115-.441-.192-.586,1.046-.884,1.575-1.489,2.611.682.308,1.028.452,1.719.721.1-.183.144-.269.231-.452C107.979,132.682,107.739,132.577,107.259,132.375Z" fill="#003162"/>
                  <path id="Path_1595" data-name="Path 1595" d="M111.407,131.8c.076-.192.115-.279.192-.471-.682-.22-1.018-.336-1.69-.585-.519,1.094-.778,1.632-1.306,2.717.749.288,1.133.422,1.911.663.076-.183.115-.279.192-.461-.557-.183-.836-.279-1.383-.471.135-.3.2-.451.346-.749.48.173.72.26,1.21.413.076-.182.115-.278.192-.47-.481-.154-.721-.231-1.191-.4.106-.24.163-.364.278-.6C110.648,131.559,110.907,131.636,111.407,131.8Z" fill="#003162"/>
                  <path id="Path_1596" data-name="Path 1596" d="M113.586,132.241a.719.719,0,0,0-.269-.356,1.381,1.381,0,0,0-.422-.172c-.346-.1-.519-.144-.864-.25-.423,1.123-.644,1.68-1.085,2.8.384.115.576.172.969.278a1.349,1.349,0,0,0,.481.067.88.88,0,0,0,.441-.134,1.318,1.318,0,0,0,.432-.432,2.138,2.138,0,0,0,.269-.6,2.627,2.627,0,0,0,.135-.691A1.454,1.454,0,0,0,113.586,132.241Zm-.547,1.056a2.369,2.369,0,0,1-.231.509.688.688,0,0,1-.22.24.579.579,0,0,1-.25.067,1.365,1.365,0,0,1-.317-.058c-.153-.048-.23-.067-.384-.115.278-.739.423-1.114.691-1.863.087.029.125.039.212.068a1.376,1.376,0,0,1,.384.134.394.394,0,0,1,.182.192.705.705,0,0,1,.048.307A2.575,2.575,0,0,1,113.039,133.3Z" fill="#003162"/>
                  <path id="Path_1597" data-name="Path 1597" d="M115.036,134.161c.23.048.355.067.586.106-.029.153-.048.23-.087.374a1.091,1.091,0,0,1-.326.125.824.824,0,0,1-.346.009.614.614,0,0,1-.461-.374,1.22,1.22,0,0,1,.01-.807,1.257,1.257,0,0,1,.394-.681.632.632,0,0,1,.566-.135.5.5,0,0,1,.327.192.587.587,0,0,1,.115.375c.211-.01.307-.019.518-.029a1.056,1.056,0,0,0-.192-.682.986.986,0,0,0-.643-.355,1.068,1.068,0,0,0-.605.029,1.321,1.321,0,0,0-.6.432,2.117,2.117,0,0,0-.394.758,1.929,1.929,0,0,0-.086.8,1.14,1.14,0,0,0,.3.644,1.214,1.214,0,0,0,.662.336,1.637,1.637,0,0,0,.682-.01,1.6,1.6,0,0,0,.547-.23c.106-.471.154-.7.25-1.162-.432-.077-.653-.115-1.085-.2C115.113,133.863,115.084,133.969,115.036,134.161Z" fill="#003162"/>
                  <path id="Path_1598" data-name="Path 1598" d="M118.7,133.316c.019-.2.038-.3.057-.5-.71-.077-1.065-.125-1.785-.231-.221,1.172-.336,1.757-.576,2.929.806.125,1.209.182,2.025.259.029-.192.039-.3.068-.5-.586-.058-.884-.1-1.469-.173.067-.317.1-.48.144-.8.518.067.768.1,1.286.154.029-.2.039-.3.067-.5-.508-.048-.758-.086-1.257-.153.048-.26.067-.394.115-.653C117.907,133.23,118.166,133.258,118.7,133.316Z" fill="#003162"/>
                  <path id="Path_1599" data-name="Path 1599" d="M120.509,135.438c.067-.979.1-1.469.154-2.448-.192-.01-.288-.02-.49-.029-.086,1.181-.134,1.766-.24,2.947.758.048,1.133.068,1.891.077.01-.2.01-.3.01-.5C121.306,135.476,121.037,135.467,120.509,135.438Z" fill="#003162"/>
                  <path id="Path_1600" data-name="Path 1600" d="M124.2,133.326a1.1,1.1,0,0,0-.883-.375,1.088,1.088,0,0,0-.519.125.919.919,0,0,0-.317.269,1.5,1.5,0,0,0-.23.4,2.019,2.019,0,0,0-.125.768,1.655,1.655,0,0,0,.336,1.124,1.152,1.152,0,0,0,.951.393,1.117,1.117,0,0,0,.922-.441,1.586,1.586,0,0,0,.268-1.143A1.883,1.883,0,0,0,124.2,133.326Zm-.288,1.92a.636.636,0,0,1-.518.269.625.625,0,0,1-.529-.25,1.244,1.244,0,0,1-.211-.768,1.29,1.29,0,0,1,.192-.768.612.612,0,0,1,.49-.269.633.633,0,0,1,.509.24,1.374,1.374,0,0,1,.221.759A1.258,1.258,0,0,1,123.908,135.246Z" fill="#003162"/>
                  <path id="Path_1601" data-name="Path 1601" d="M126.366,132.8c-.125.912-.192,1.363-.336,2.265-.375-.864-.547-1.286-.874-2.15-.211.009-.317.019-.528.029.432,1.171.672,1.757,1.181,2.918l.576-.048c.231-1.229.327-1.843.49-3.072C126.673,132.769,126.568,132.778,126.366,132.8Z" fill="#003162"/>
                  <path id="Path_1602" data-name="Path 1602" d="M129.515,134.872c-.576.1-.873.143-1.459.23-.058-.327-.086-.48-.144-.807.509-.067.768-.115,1.277-.2-.048-.2-.067-.3-.115-.5-.5.1-.749.135-1.249.2-.047-.259-.076-.394-.124-.653.528-.077.8-.115,1.315-.211-.048-.2-.067-.3-.115-.5-.7.124-1.056.182-1.776.278.192,1.181.288,1.776.489,2.957.807-.1,1.21-.163,2.017-.307C129.583,135.16,129.563,135.063,129.515,134.872Z" fill="#003162"/>
                  <path id="Path_1603" data-name="Path 1603" d="M133.02,134.055a2.334,2.334,0,0,1-.278-.125,1.44,1.44,0,0,0,.038-.24c0-.086-.01-.22-.029-.412h-.47a1.508,1.508,0,0,1,.009.355c-.211-.173-.317-.259-.518-.432a1.407,1.407,0,0,0,.24-.451.736.736,0,0,0-.029-.356.724.724,0,0,0-.326-.422.68.68,0,0,0-.538-.067.69.69,0,0,0-.432.3.622.622,0,0,0-.039.49,1.022,1.022,0,0,0,.144.288,2.015,2.015,0,0,0,.289.288,1.134,1.134,0,0,0-.308.49.932.932,0,0,0-.009.537.91.91,0,0,0,.345.5.965.965,0,0,0,.826.134,1,1,0,0,0,.394-.182.942.942,0,0,0,.249-.317,1.976,1.976,0,0,0,.538.221c.058-.2.086-.308.144-.509A1.6,1.6,0,0,1,133.02,134.055Zm-1.93-1.488a.229.229,0,0,1,.163-.278.287.287,0,0,1,.2.038.267.267,0,0,1,.125.163.332.332,0,0,1-.058.288c-.038.058-.048.087-.086.144-.067-.048-.1-.076-.163-.124A.514.514,0,0,1,131.09,132.567Zm.883,1.8a.617.617,0,0,1-.211.106.376.376,0,0,1-.307-.048.432.432,0,0,1-.192-.269.521.521,0,0,1,0-.3.729.729,0,0,1,.173-.3c.278.24.422.355.71.576A.783.783,0,0,1,131.973,134.372Z" fill="#003162"/>
                  <path id="Path_1604" data-name="Path 1604" d="M136.208,132.6a1.144,1.144,0,0,0-.307-.4,1.062,1.062,0,0,0-.394-.182,3.006,3.006,0,0,0-.605-.01,1.088,1.088,0,0,1-.519-.038.267.267,0,0,1-.144-.144.253.253,0,0,1,0-.2.5.5,0,0,1,.279-.211.457.457,0,0,1,.336-.01.625.625,0,0,1,.269.26c.182-.077.269-.116.451-.2a1.07,1.07,0,0,0-.509-.519,1.006,1.006,0,0,0-.749,0,1.052,1.052,0,0,0-.413.26.605.605,0,0,0-.163.374.868.868,0,0,0,.058.442.959.959,0,0,0,.451.5,1.454,1.454,0,0,0,.672.086c.231-.009.375-.019.442-.019a.669.669,0,0,1,.23.058.324.324,0,0,1,.125.154.346.346,0,0,1,.01.307.519.519,0,0,1-.307.249.581.581,0,0,1-.423,0,.823.823,0,0,1-.355-.355c-.183.087-.269.135-.461.211a1.317,1.317,0,0,0,.6.625,1.141,1.141,0,0,0,.835,0,1.3,1.3,0,0,0,.5-.3.736.736,0,0,0,.192-.442A1,1,0,0,0,136.208,132.6Z" fill="#003162"/>
                  <path id="Path_1605" data-name="Path 1605" d="M138.608,132c-.528.249-.8.364-1.334.585-.154-.3-.231-.441-.384-.739.47-.2.7-.3,1.171-.509-.106-.182-.163-.278-.259-.461-.461.211-.692.317-1.153.509-.124-.24-.192-.365-.316-.6.489-.2.729-.307,1.209-.538-.1-.172-.153-.268-.249-.451-.653.3-.98.442-1.642.711.538,1.1.816,1.651,1.373,2.746.749-.3,1.123-.461,1.853-.8C138.772,132.269,138.714,132.183,138.608,132Z" fill="#003162"/>
                  <path id="Path_1606" data-name="Path 1606" d="M140.769,130.82a4.983,4.983,0,0,0-.548-.279,1.224,1.224,0,0,0-.384-.086.67.67,0,0,0,.279-.48.9.9,0,0,0-.183-.557,1.078,1.078,0,0,0-.365-.356.7.7,0,0,0-.413-.115,1.6,1.6,0,0,0-.537.192c-.365.192-.547.279-.912.461.624,1.066.941,1.594,1.574,2.66.2-.1.3-.144.48-.24-.268-.432-.413-.653-.681-1.1l.1-.048a.553.553,0,0,1,.249-.086.408.408,0,0,1,.2.038,5.315,5.315,0,0,1,.5.259c.279.154.423.231.711.384.221-.124.336-.182.557-.307C141.143,131.021,141.018,130.954,140.769,130.82Zm-1.229-.73a1.491,1.491,0,0,1-.385.24c-.134.077-.2.1-.336.173-.163-.269-.249-.4-.412-.672.144-.068.211-.106.345-.173.183-.087.288-.144.327-.154a.316.316,0,0,1,.23.01.517.517,0,0,1,.2.182.439.439,0,0,1,.077.221A.223.223,0,0,1,139.54,130.09Z" fill="#003162"/>
                  <path id="Path_1607" data-name="Path 1607" d="M141.489,127.469c-.173.1-.26.163-.432.278.365.855.537,1.287.873,2.16-.777-.6-1.152-.912-1.891-1.545-.183.1-.279.163-.461.259,1,.864,1.517,1.277,2.592,2.093.193-.115.288-.173.481-.3C142.209,129.226,141.969,128.64,141.489,127.469Z" fill="#003162"/>
                  <path id="Path_1608" data-name="Path 1608" d="M142.084,127.065c-.154.106-.24.164-.4.269.777.98,1.181,1.469,1.978,2.439.182-.115.269-.182.441-.3C143.284,128.515,142.881,128.035,142.084,127.065Z" fill="#003162"/>
                  <path id="Path_1609" data-name="Path 1609" d="M145.589,127.171c-.212.067-.317.1-.528.163a.974.974,0,0,1,.182.5.43.43,0,0,1-.173.336.6.6,0,0,1-.547.087,1.549,1.549,0,0,1-.7-.528,1.4,1.4,0,0,1-.4-.711.492.492,0,0,1,.547-.547.772.772,0,0,1,.413.173c.115-.173.163-.25.278-.423a1.565,1.565,0,0,0-.6-.259,1.01,1.01,0,0,0-.8.183.9.9,0,0,0-.374.816,1.9,1.9,0,0,0,.537,1.1,1.922,1.922,0,0,0,1.037.7,1.167,1.167,0,0,0,.98-.192.927.927,0,0,0,.374-.615A1.226,1.226,0,0,0,145.589,127.171Z" fill="#003162"/>
                  <path id="Path_1610" data-name="Path 1610" d="M147.711,125.884c-.423.4-.634.6-1.076.97-.249-.24-.374-.355-.624-.595.384-.336.576-.5.951-.845-.164-.144-.24-.221-.394-.365-.374.346-.557.509-.931.835-.2-.2-.308-.3-.5-.489.394-.346.6-.519.98-.874-.163-.154-.24-.221-.394-.365-.528.48-.787.72-1.335,1.171.874.9,1.326,1.354,2.228,2.238.615-.509.912-.778,1.5-1.325C147.951,126.105,147.874,126.028,147.711,125.884Z" fill="#003162"/>
                </g>
              </g>
            </g>
          </g>
        </g>
      </g>
      <g id="Group_384" data-name="Group 384">
        <path id="Path_4149" data-name="Path 4149" d="M11.084.425C18.166.425,21.6-3.116,21.6-7.259c0-9.1-14.413-5.949-14.413-10.517,0-1.558,1.31-2.833,4.71-2.833a14,14,0,0,1,6.87,1.948l1.771-4.356a16.628,16.628,0,0,0-8.605-2.2c-7.047,0-10.446,3.506-10.446,7.72,0,9.207,14.413,6.02,14.413,10.659,0,1.523-1.381,2.656-4.781,2.656a14.581,14.581,0,0,1-8.18-2.585L.992-2.443C3.187-.744,7.153.425,11.084.425ZM30.419-16.537v-2.514H25.142V0h5.524V-8.995c0-3.647,2.018-5.312,5.064-5.312.425,0,.779.035,1.239.071v-5.1C34.031-19.335,31.764-18.379,30.419-16.537Zm12.607-5.17a3.176,3.176,0,0,0,3.435-3.187c0-1.7-1.381-2.975-3.435-2.975a3.158,3.158,0,0,0-3.435,3.081A3.158,3.158,0,0,0,43.025-21.707ZM40.263,0h5.524V-19.052H40.263ZM78.3,0h6.693L74.117-13.74,84.386-24.788H78.012L67.034-13.209v-11.58h-5.7V0h5.7V-6.268l3.329-3.47ZM92.07-16.537v-2.514H86.794V0h5.524V-8.995c0-3.647,2.018-5.312,5.064-5.312.425,0,.779.035,1.239.071v-5.1C95.682-19.335,93.416-18.379,92.07-16.537Zm12.607-5.17a3.176,3.176,0,0,0,3.435-3.187c0-1.7-1.381-2.975-3.435-2.975a3.158,3.158,0,0,0-3.435,3.081A3.158,3.158,0,0,0,104.677-21.707ZM101.915,0h5.524V-19.052h-5.524Zm17.068.283c5.7,0,8.995-2.514,8.995-6.055,0-7.507-11.509-4.356-11.509-7.614,0-.992,1.062-1.771,3.541-1.771A10.941,10.941,0,0,1,125.5-13.74l1.841-3.931a15.666,15.666,0,0,0-7.33-1.664c-5.56,0-8.818,2.55-8.818,6.162,0,7.614,11.509,4.426,11.509,7.543,0,1.062-.956,1.735-3.506,1.735a13.034,13.034,0,0,1-6.622-1.841l-1.841,3.966A16.355,16.355,0,0,0,118.983.283Zm23.974-19.618a8.374,8.374,0,0,0-6.055,2.266v-9.207h-5.524V0H136.9V-9.42c0-3.506,1.912-5.135,4.568-5.135,2.443,0,3.86,1.416,3.86,4.5V0h5.524V-10.907C150.854-16.714,147.454-19.335,142.957-19.335Zm24.469,0a8.341,8.341,0,0,0-6.3,2.514v-2.231h-5.276V0h5.524V-9.42c0-3.506,1.912-5.135,4.568-5.135,2.443,0,3.86,1.416,3.86,4.5V0h5.524V-10.907C175.323-16.714,171.924-19.335,167.427-19.335Zm20.574,0a14.645,14.645,0,0,0-8.216,2.3l1.983,3.86a9.16,9.16,0,0,1,5.489-1.771c2.975,0,4.391,1.381,4.391,3.754h-4.391c-5.808,0-8.18,2.337-8.18,5.7,0,3.293,2.656,5.772,7.118,5.772,2.8,0,4.781-.921,5.808-2.656V0h5.17V-10.871C197.172-16.644,193.808-19.335,188-19.335Zm-.425,15.9c-1.948,0-3.116-.921-3.116-2.3,0-1.275.814-2.231,3.4-2.231h3.789V-6.02A4.07,4.07,0,0,1,187.576-3.435ZM21.46,44.51h6.02L16.4,19.722H10.73L-.319,44.51H5.56l2.2-5.312H19.264ZM9.6,34.843l3.931-9.49,3.931,9.49Zm25.355-6.87V25.458H29.675V44.51H35.2V35.515c0-3.647,2.018-5.312,5.064-5.312.425,0,.779.035,1.239.071v-5.1C38.563,25.175,36.3,26.131,34.951,27.973ZM56.269,39.694a3.723,3.723,0,0,1-2.231.708,2.222,2.222,0,0,1-2.373-2.514V30.133h4.745V25.883H51.666V21.244H46.141v4.639H43.2v4.249h2.939v7.826c0,4.533,2.62,6.834,7.118,6.834a7.9,7.9,0,0,0,4.5-1.2Zm11.013,5.1c5.7,0,8.995-2.514,8.995-6.055,0-7.507-11.509-4.356-11.509-7.614,0-.992,1.062-1.771,3.541-1.771A10.941,10.941,0,0,1,73.8,30.77l1.841-3.931a15.666,15.666,0,0,0-7.33-1.664c-5.56,0-8.818,2.55-8.818,6.162C59.492,38.95,71,35.763,71,38.88c0,1.062-.956,1.735-3.506,1.735a13.034,13.034,0,0,1-6.622-1.841l-1.841,3.966A16.355,16.355,0,0,0,67.282,44.793Zm30.1-19.618a14.645,14.645,0,0,0-8.216,2.3l1.983,3.86a9.16,9.16,0,0,1,5.489-1.771c2.975,0,4.391,1.381,4.391,3.754H96.639c-5.808,0-8.18,2.337-8.18,5.7,0,3.293,2.656,5.772,7.118,5.772,2.8,0,4.781-.921,5.808-2.656V44.51h5.17V33.639C106.554,27.866,103.19,25.175,97.382,25.175Zm-.425,15.9c-1.948,0-3.116-.921-3.116-2.3,0-1.275.814-2.231,3.4-2.231h3.789V38.49A4.07,4.07,0,0,1,96.957,41.075Zm26.169-15.9a8.341,8.341,0,0,0-6.3,2.514V25.458h-5.276V44.51h5.524V35.09c0-3.506,1.912-5.135,4.568-5.135,2.443,0,3.86,1.416,3.86,4.5V44.51h5.524V33.6C131.023,27.8,127.624,25.175,123.127,25.175Zm26.984-6.941v9.242a7.319,7.319,0,0,0-5.7-2.3c-5.383,0-9.526,3.824-9.526,9.809s4.143,9.809,9.526,9.809a7.328,7.328,0,0,0,5.949-2.479v2.2h5.276V18.235Zm-4.745,22.026c-2.762,0-4.887-1.983-4.887-5.276s2.125-5.276,4.887-5.276c2.727,0,4.851,1.983,4.851,5.276S148.092,40.261,145.365,40.261Zm33.924,4.674c7.082,0,10.517-3.541,10.517-7.684,0-9.1-14.413-5.949-14.413-10.517,0-1.558,1.31-2.833,4.71-2.833a14,14,0,0,1,6.87,1.948l1.771-4.356a16.628,16.628,0,0,0-8.605-2.2c-7.047,0-10.446,3.506-10.446,7.72,0,9.207,14.413,6.02,14.413,10.659,0,1.523-1.381,2.656-4.781,2.656a14.581,14.581,0,0,1-8.18-2.585l-1.948,4.32C171.393,43.766,175.359,44.935,179.29,44.935Zm23.266-.142c4,0,7.153-1.771,8.534-4.816L206.8,37.64a4.687,4.687,0,0,1-4.285,2.62c-2.8,0-4.993-1.948-4.993-5.276s2.2-5.276,4.993-5.276a4.751,4.751,0,0,1,4.285,2.62l4.285-2.3c-1.381-3.116-4.533-4.851-8.534-4.851-6.2,0-10.624,4.072-10.624,9.809S196.358,44.793,202.555,44.793ZM217.038,22.8a3.176,3.176,0,0,0,3.435-3.187c0-1.7-1.381-2.975-3.435-2.975a3.1,3.1,0,1,0,0,6.162ZM214.276,44.51H219.8V25.458h-5.524ZM243.6,35.055c0-6.126-4.32-9.88-9.915-9.88-5.808,0-10.163,4.108-10.163,9.809,0,5.666,4.285,9.809,10.871,9.809,3.435,0,6.091-1.062,7.861-3.081l-2.939-3.187a6.458,6.458,0,0,1-4.781,1.841c-2.9,0-4.922-1.452-5.453-3.824h14.413C243.526,36.082,243.6,35.48,243.6,35.055Zm-9.88-5.7a4.527,4.527,0,0,1,4.674,3.966h-9.384A4.51,4.51,0,0,1,233.717,29.354Zm25.142-4.179a8.341,8.341,0,0,0-6.3,2.514V25.458H247.28V44.51H252.8V35.09c0-3.506,1.912-5.135,4.568-5.135,2.443,0,3.86,1.416,3.86,4.5V44.51h5.524V33.6C266.756,27.8,263.357,25.175,258.86,25.175Zm22.309,19.618c4,0,7.153-1.771,8.534-4.816l-4.285-2.337a4.687,4.687,0,0,1-4.285,2.62c-2.8,0-4.993-1.948-4.993-5.276s2.2-5.276,4.993-5.276a4.751,4.751,0,0,1,4.285,2.62l4.285-2.3c-1.381-3.116-4.533-4.851-8.534-4.851-6.2,0-10.624,4.072-10.624,9.809S274.972,44.793,281.169,44.793ZM311.3,35.055c0-6.126-4.32-9.88-9.915-9.88-5.807,0-10.163,4.108-10.163,9.809,0,5.666,4.285,9.809,10.871,9.809,3.435,0,6.091-1.062,7.861-3.081l-2.939-3.187a6.458,6.458,0,0,1-4.781,1.841c-2.9,0-4.922-1.452-5.453-3.824H311.2C311.234,36.082,311.3,35.48,311.3,35.055Zm-9.88-5.7A4.527,4.527,0,0,1,306.1,33.32h-9.384A4.51,4.51,0,0,1,301.425,29.354Zm35.837,15.581c4.32,0,7.9-1.558,10.234-4.426l-3.683-3.4a7.9,7.9,0,0,1-6.232,2.939,7.6,7.6,0,0,1-7.932-7.932,7.6,7.6,0,0,1,7.932-7.932,7.975,7.975,0,0,1,6.232,2.9l3.683-3.4A12.8,12.8,0,0,0,337.3,19.3c-7.72,0-13.456,5.347-13.456,12.819S329.577,44.935,337.261,44.935Zm22.1-.142c6.055,0,10.446-4.072,10.446-9.809s-4.391-9.809-10.446-9.809-10.482,4.072-10.482,9.809S353.3,44.793,359.358,44.793Zm0-4.533c-2.762,0-4.887-1.983-4.887-5.276s2.125-5.276,4.887-5.276,4.851,1.983,4.851,5.276S362.12,40.261,359.358,40.261Zm14.129,4.249h5.524V18.235h-5.524Zm10.659,0h5.524V18.235h-5.524Zm29.321-9.455c0-6.126-4.32-9.88-9.915-9.88-5.807,0-10.163,4.108-10.163,9.809,0,5.666,4.285,9.809,10.871,9.809,3.435,0,6.091-1.062,7.861-3.081l-2.939-3.187a6.458,6.458,0,0,1-4.781,1.841c-2.9,0-4.922-1.452-5.453-3.824h14.413C413.4,36.082,413.467,35.48,413.467,35.055Zm-9.88-5.7a4.527,4.527,0,0,1,4.674,3.966h-9.384A4.51,4.51,0,0,1,403.587,29.354Zm27.975-3.9V27.9a7.647,7.647,0,0,0-6.3-2.727c-5.276,0-9.526,3.647-9.526,9.207s4.249,9.207,9.526,9.207a7.843,7.843,0,0,0,6.02-2.373v.814c0,3.435-1.7,5.206-5.6,5.206a11.387,11.387,0,0,1-6.728-2.16l-2.2,3.966c2.231,1.735,5.737,2.62,9.349,2.62,6.87,0,10.694-3.258,10.694-10.34V25.458Zm-5.206,13.6c-2.9,0-5.028-1.877-5.028-4.674s2.125-4.674,5.028-4.674,4.993,1.877,4.993,4.674S429.261,39.057,426.357,39.057Zm34.243-4c0-6.126-4.32-9.88-9.915-9.88-5.807,0-10.163,4.108-10.163,9.809,0,5.666,4.285,9.809,10.871,9.809,3.435,0,6.091-1.062,7.861-3.081l-2.939-3.187a6.458,6.458,0,0,1-4.781,1.841c-2.9,0-4.922-1.452-5.453-3.824h14.413C460.529,36.082,460.6,35.48,460.6,35.055Zm-9.88-5.7a4.527,4.527,0,0,1,4.674,3.966h-9.384A4.51,4.51,0,0,1,450.72,29.354Z" transform="translate(218.814 90.591)" fill="#fff"/>
        <path id="Path_4150" data-name="Path 4150" d="M9.734,0h1.627L6.432-10.85H4.9L-.016,0h1.6L2.775-2.712H8.54ZM3.317-3.952,5.658-9.269,8-3.952Zm13.95-4.34a3.521,3.521,0,0,0-2.96,1.318v-1.24H12.88V0h1.488V-4.232a2.44,2.44,0,0,1,2.6-2.728c1.41,0,2.216.79,2.216,2.4V0h1.488V-4.727C20.677-7.145,19.267-8.293,17.267-8.293ZM36.177,0H37.8L32.875-10.85H31.341L26.428,0h1.6l1.194-2.712h5.766ZM29.76-3.952,32.1-9.269l2.34,5.317ZM45.337-8.215v4.247A2.417,2.417,0,0,1,42.8-1.24c-1.41,0-2.216-.806-2.216-2.418V-8.215H39.091v4.727A3.228,3.228,0,0,0,42.625.093a3.342,3.342,0,0,0,2.79-1.333V0h1.41V-8.215Zm8.6,6.665a1.874,1.874,0,0,1-1.162.388,1.211,1.211,0,0,1-1.286-1.38V-6.99h2.356V-8.215H51.491v-1.8H50v1.8h-1.4V-6.99H50v4.51a2.344,2.344,0,0,0,2.6,2.573A2.807,2.807,0,0,0,54.4-.48ZM59.567.093a4.087,4.087,0,0,0,4.263-4.2,4.075,4.075,0,0,0-4.263-4.185,4.088,4.088,0,0,0-4.278,4.185A4.1,4.1,0,0,0,59.567.093Zm0-1.3a2.72,2.72,0,0,1-2.775-2.9A2.707,2.707,0,0,1,59.567-6.99a2.7,2.7,0,0,1,2.759,2.883A2.708,2.708,0,0,1,59.567-1.209ZM70.4-8.293a3.521,3.521,0,0,0-2.96,1.318v-1.24H66.014V0H67.5V-4.232a2.44,2.44,0,0,1,2.6-2.728c1.41,0,2.216.79,2.216,2.4V0h1.488V-4.727C73.811-7.145,72.4-8.293,70.4-8.293ZM80.259.093a4.087,4.087,0,0,0,4.262-4.2,4.075,4.075,0,0,0-4.262-4.185,4.088,4.088,0,0,0-4.278,4.185A4.1,4.1,0,0,0,80.259.093Zm0-1.3a2.72,2.72,0,0,1-2.774-2.9A2.707,2.707,0,0,1,80.259-6.99a2.7,2.7,0,0,1,2.759,2.883A2.708,2.708,0,0,1,80.259-1.209ZM96.984-8.293a3.7,3.7,0,0,0-3.162,1.519,3.04,3.04,0,0,0-2.852-1.519,3.33,3.33,0,0,0-2.836,1.3V-8.215H86.707V0h1.488V-4.232c0-1.782.977-2.728,2.465-2.728,1.349,0,2.124.79,2.124,2.4V0h1.488V-4.232c0-1.782.976-2.728,2.465-2.728,1.348,0,2.123.79,2.123,2.4V0h1.488V-4.727C100.347-7.145,98.983-8.293,96.984-8.293Zm9.8,8.386a4.087,4.087,0,0,0,4.262-4.2,4.075,4.075,0,0,0-4.262-4.185A4.088,4.088,0,0,0,102.5-4.107,4.1,4.1,0,0,0,106.78.093Zm0-1.3a2.72,2.72,0,0,1-2.774-2.9A2.707,2.707,0,0,1,106.78-6.99a2.7,2.7,0,0,1,2.759,2.883A2.708,2.708,0,0,1,106.78-1.209ZM119.4-8.215v4.247a2.417,2.417,0,0,1-2.542,2.728c-1.41,0-2.216-.806-2.216-2.418V-8.215H113.15v4.727a3.228,3.228,0,0,0,3.534,3.58,3.342,3.342,0,0,0,2.79-1.333V0h1.41V-8.215ZM126.2.093c2.186,0,3.549-.946,3.549-2.433,0-3.193-5.208-1.612-5.208-3.549,0-.651.635-1.132,1.938-1.132a4.29,4.29,0,0,1,2.371.651l.635-1.178a5.978,5.978,0,0,0-2.992-.744c-2.108,0-3.425.992-3.425,2.465,0,3.27,5.192,1.674,5.192,3.518,0,.7-.573,1.116-1.953,1.116a5.279,5.279,0,0,1-2.883-.852l-.62,1.178A5.929,5.929,0,0,0,126.2.093Zm14.9.031a5.384,5.384,0,0,0,4.138-1.7l-1.007-.977a4.035,4.035,0,0,1-3.053,1.3,4.1,4.1,0,0,1-4.262-4.169,4.1,4.1,0,0,1,4.262-4.17,4.02,4.02,0,0,1,3.053,1.286l1.007-.976a5.361,5.361,0,0,0-4.123-1.689,5.488,5.488,0,0,0-5.751,5.549A5.484,5.484,0,0,0,141.1.124Zm9.439-.031a4.087,4.087,0,0,0,4.262-4.2,4.075,4.075,0,0,0-4.262-4.185,4.088,4.088,0,0,0-4.278,4.185A4.1,4.1,0,0,0,150.536.093Zm0-1.3a2.72,2.72,0,0,1-2.775-2.9,2.707,2.707,0,0,1,2.775-2.883,2.7,2.7,0,0,1,2.759,2.883A2.708,2.708,0,0,1,150.536-1.209ZM156.984,0h1.488V-11.5h-1.488Zm4.449,0h1.488V-11.5h-1.488Zm11.873-4.061a3.961,3.961,0,0,0-4.061-4.232,4.023,4.023,0,0,0-4.123,4.185,4.113,4.113,0,0,0,4.417,4.2,4.123,4.123,0,0,0,3.24-1.333l-.822-.961a3.067,3.067,0,0,1-2.371.992,2.782,2.782,0,0,1-2.976-2.4h6.665C173.29-3.751,173.306-3.937,173.306-4.061Zm-4.061-2.976a2.562,2.562,0,0,1,2.635,2.356h-5.27A2.561,2.561,0,0,1,169.245-7.037Zm12.695-1.178v1.271A3.748,3.748,0,0,0,178.9-8.293a3.922,3.922,0,0,0-4.169,3.968A3.934,3.934,0,0,0,178.9-.341a3.759,3.759,0,0,0,2.961-1.271v.651c0,1.86-.883,2.759-2.821,2.759a5.014,5.014,0,0,1-3.162-1.07l-.713,1.147A6.082,6.082,0,0,0,179.087,3.1c2.79,0,4.262-1.318,4.262-4.216v-7.1Zm-2.868,6.572a2.648,2.648,0,0,1-2.837-2.682,2.627,2.627,0,0,1,2.837-2.666,2.623,2.623,0,0,1,2.821,2.666A2.643,2.643,0,0,1,179.072-1.643Zm14.663-2.418a3.961,3.961,0,0,0-4.061-4.232,4.023,4.023,0,0,0-4.123,4.185,4.113,4.113,0,0,0,4.417,4.2,4.123,4.123,0,0,0,3.24-1.333l-.822-.961a3.067,3.067,0,0,1-2.371.992,2.782,2.782,0,0,1-2.976-2.4H193.7C193.719-3.751,193.735-3.937,193.735-4.061Zm-4.061-2.976a2.562,2.562,0,0,1,2.635,2.356h-5.27A2.561,2.561,0,0,1,189.674-7.037ZM208.537,0h1.628l-4.929-10.85H203.7L198.787,0h1.6l1.194-2.712h5.766ZM202.12-3.952l2.34-5.317,2.34,5.317Zm12.57-6.417a1.927,1.927,0,0,1,1.147.387l.449-1.132a2.776,2.776,0,0,0-1.674-.481A2.469,2.469,0,0,0,211.9-8.944v.729h-1.4V-6.99h1.4V0h1.488V-6.99h2.356V-8.215h-2.387v-.713C213.357-9.874,213.807-10.37,214.69-10.37Zm5.6,0a1.927,1.927,0,0,1,1.147.387l.45-1.132a2.776,2.776,0,0,0-1.674-.481A2.469,2.469,0,0,0,217.5-8.944v.729h-1.4V-6.99h1.4V0h1.488V-6.99h2.356V-8.215h-2.387v-.713C218.953-9.874,219.4-10.37,220.286-10.37Zm4.572.573a.974.974,0,0,0,1.008-.992.964.964,0,0,0-1.008-.946.98.98,0,0,0-1.007.977A.967.967,0,0,0,224.858-9.8ZM224.115,0H225.6V-8.215h-1.488Zm4.449,0h1.488V-11.5h-1.488Zm5.192-9.8a.974.974,0,0,0,1.008-.992.964.964,0,0,0-1.008-.946.98.98,0,0,0-1.007.977A.967.967,0,0,0,233.755-9.8ZM233.012,0H234.5V-8.215h-1.488Zm7.44-8.293a5.471,5.471,0,0,0-3.394,1.054l.62,1.116a4.154,4.154,0,0,1,2.6-.884c1.472,0,2.2.728,2.2,1.984v.294h-2.356c-2.449,0-3.3,1.085-3.3,2.4C236.824-.9,238,.093,239.863.093a3.049,3.049,0,0,0,2.7-1.178V0h1.411V-4.96C243.97-7.207,242.7-8.293,240.451-8.293Zm-.341,7.239c-1.132,0-1.814-.512-1.814-1.333,0-.7.419-1.271,1.891-1.271h2.294v1.147A2.382,2.382,0,0,1,240.111-1.054Zm10.9-.5a1.874,1.874,0,0,1-1.163.388,1.211,1.211,0,0,1-1.286-1.38V-6.99h2.356V-8.215h-2.356v-1.8H247.07v1.8h-1.4V-6.99h1.4v4.51a2.344,2.344,0,0,0,2.6,2.573,2.807,2.807,0,0,0,1.8-.573Zm9.532-2.511a3.961,3.961,0,0,0-4.061-4.232,4.023,4.023,0,0,0-4.123,4.185,4.113,4.113,0,0,0,4.418,4.2,4.123,4.123,0,0,0,3.24-1.333l-.822-.961a3.067,3.067,0,0,1-2.372.992,2.782,2.782,0,0,1-2.976-2.4h6.665C260.524-3.751,260.539-3.937,260.539-4.061Zm-4.061-2.976a2.562,2.562,0,0,1,2.635,2.356h-5.27A2.561,2.561,0,0,1,256.478-7.037ZM268.987-11.5v4.526a3.5,3.5,0,0,0-2.867-1.318,3.987,3.987,0,0,0-4.154,4.185,4,4,0,0,0,4.154,4.2,3.471,3.471,0,0,0,2.93-1.395V0h1.426V-11.5ZM266.243-1.209a2.72,2.72,0,0,1-2.774-2.9,2.707,2.707,0,0,1,2.774-2.883A2.7,2.7,0,0,1,269-4.107,2.717,2.717,0,0,1,266.243-1.209Zm15.624-.341a1.874,1.874,0,0,1-1.163.388,1.211,1.211,0,0,1-1.286-1.38V-6.99h2.356V-8.215h-2.356v-1.8h-1.488v1.8h-1.395V-6.99h1.395v4.51a2.344,2.344,0,0,0,2.6,2.573,2.807,2.807,0,0,0,1.8-.573ZM287.494.093a4.087,4.087,0,0,0,4.263-4.2,4.075,4.075,0,0,0-4.263-4.185,4.088,4.088,0,0,0-4.278,4.185A4.1,4.1,0,0,0,287.494.093Zm0-1.3a2.72,2.72,0,0,1-2.774-2.9,2.707,2.707,0,0,1,2.774-2.883,2.7,2.7,0,0,1,2.759,2.883A2.708,2.708,0,0,1,287.494-1.209Zm18.259-4.418a2.572,2.572,0,0,0,1.457-2.418c0-1.752-1.4-2.805-3.891-2.805h-4.867V0h5.177c2.743,0,4.154-1.069,4.154-2.929A2.622,2.622,0,0,0,305.753-5.627ZM303.18-9.595c1.581,0,2.48.589,2.48,1.736s-.9,1.736-2.48,1.736H300V-9.595Zm.387,8.339H300V-4.867h3.565c1.721,0,2.651.558,2.651,1.814S305.288-1.255,303.568-1.255Zm10.912-7.037a3.562,3.562,0,0,0-2.9,1.24V-11.5h-1.488V0h1.488V-4.232a2.44,2.44,0,0,1,2.6-2.728c1.41,0,2.216.79,2.216,2.4V0h1.488V-4.727C317.889-7.145,316.479-8.293,314.479-8.293Zm9.285,0a5.471,5.471,0,0,0-3.395,1.054l.62,1.116a4.154,4.154,0,0,1,2.6-.884c1.473,0,2.2.728,2.2,1.984v.294h-2.356c-2.449,0-3.3,1.085-3.3,2.4,0,1.426,1.178,2.418,3.038,2.418a3.05,3.05,0,0,0,2.7-1.178V0h1.41V-4.96C327.283-7.207,326.012-8.293,323.764-8.293Zm-.341,7.239c-1.132,0-1.814-.512-1.814-1.333,0-.7.418-1.271,1.891-1.271h2.294v1.147A2.382,2.382,0,0,1,323.423-1.054Zm8.168-5.782V-8.215h-1.426V0h1.488V-4.092a2.451,2.451,0,0,1,2.589-2.774,2.627,2.627,0,0,1,.341.016V-8.293A3.136,3.136,0,0,0,331.591-6.836Zm7.921-1.457a5.471,5.471,0,0,0-3.395,1.054l.62,1.116a4.154,4.154,0,0,1,2.6-.884c1.473,0,2.2.728,2.2,1.984v.294h-2.356c-2.449,0-3.3,1.085-3.3,2.4,0,1.426,1.178,2.418,3.038,2.418a3.05,3.05,0,0,0,2.7-1.178V0h1.41V-4.96C343.03-7.207,341.759-8.293,339.512-8.293Zm-.341,7.239c-1.132,0-1.814-.512-1.814-1.333,0-.7.418-1.271,1.891-1.271h2.294v1.147A2.382,2.382,0,0,1,339.171-1.054Zm10.9-.5a1.874,1.874,0,0,1-1.163.388,1.211,1.211,0,0,1-1.286-1.38V-6.99h2.356V-8.215h-2.356v-1.8H346.13v1.8h-1.395V-6.99h1.395v4.51a2.344,2.344,0,0,0,2.6,2.573,2.807,2.807,0,0,0,1.8-.573Zm6.773-6.743a3.562,3.562,0,0,0-2.9,1.24V-11.5h-1.488V0h1.488V-4.232a2.44,2.44,0,0,1,2.6-2.728c1.41,0,2.216.79,2.216,2.4V0h1.488V-4.727C360.251-7.145,358.841-8.293,356.841-8.293Zm7.037-1.5a.974.974,0,0,0,1.007-.992.964.964,0,0,0-1.007-.946.98.98,0,0,0-1.008.977A.967.967,0,0,0,363.878-9.8ZM363.134,0h1.488V-8.215h-1.488Zm7.44-8.293a5.471,5.471,0,0,0-3.395,1.054l.62,1.116a4.154,4.154,0,0,1,2.6-.884c1.473,0,2.2.728,2.2,1.984v.294h-2.356c-2.449,0-3.3,1.085-3.3,2.4,0,1.426,1.178,2.418,3.038,2.418a3.05,3.05,0,0,0,2.7-1.178V0h1.41V-4.96C374.092-7.207,372.822-8.293,370.574-8.293Zm-.341,7.239c-1.132,0-1.814-.512-1.814-1.333,0-.7.418-1.271,1.891-1.271H372.6v1.147A2.382,2.382,0,0,1,370.233-1.054ZM378.4-6.836V-8.215h-1.426V0h1.488V-4.092a2.451,2.451,0,0,1,2.589-2.774,2.627,2.627,0,0,1,.341.016V-8.293A3.136,3.136,0,0,0,378.4-6.836ZM392.46.124c2.867,0,4.588-1.659,4.588-4.8V-10.85h-1.5v6.107c0,2.4-1.116,3.488-3.069,3.488s-3.053-1.085-3.053-3.488V-10.85h-1.55v6.169C387.872-1.535,389.608.124,392.46.124Zm12.059-8.417a3.521,3.521,0,0,0-2.961,1.318v-1.24h-1.426V0h1.488V-4.232a2.44,2.44,0,0,1,2.6-2.728c1.41,0,2.216.79,2.216,2.4V0h1.488V-4.727C407.929-7.145,406.518-8.293,404.519-8.293Zm7.037-1.5a.974.974,0,0,0,1.007-.992.964.964,0,0,0-1.007-.946.98.98,0,0,0-1.008.977A.967.967,0,0,0,411.556-9.8ZM410.812,0H412.3V-8.215h-1.488Zm10.261-8.215L418.19-1.627l-2.821-6.587h-1.55L417.415,0h1.519l3.6-8.215Zm10.168,4.154a3.961,3.961,0,0,0-4.061-4.232,4.023,4.023,0,0,0-4.123,4.185,4.113,4.113,0,0,0,4.418,4.2,4.123,4.123,0,0,0,3.24-1.333l-.822-.961a3.067,3.067,0,0,1-2.372.992,2.782,2.782,0,0,1-2.976-2.4h6.665C431.225-3.751,431.241-3.937,431.241-4.061ZM427.18-7.037a2.562,2.562,0,0,1,2.635,2.356h-5.27A2.561,2.561,0,0,1,427.18-7.037Zm7.672.2V-8.215h-1.426V0h1.488V-4.092A2.451,2.451,0,0,1,437.5-6.866a2.627,2.627,0,0,1,.341.016V-8.293A3.136,3.136,0,0,0,434.852-6.836ZM442.215.093c2.185,0,3.549-.946,3.549-2.433,0-3.193-5.208-1.612-5.208-3.549,0-.651.635-1.132,1.938-1.132a4.29,4.29,0,0,1,2.371.651l.635-1.178a5.978,5.978,0,0,0-2.991-.744c-2.108,0-3.426.992-3.426,2.465,0,3.27,5.193,1.674,5.193,3.518,0,.7-.574,1.116-1.953,1.116a5.279,5.279,0,0,1-2.883-.852l-.62,1.178A5.929,5.929,0,0,0,442.215.093ZM448.493-9.8a.974.974,0,0,0,1.007-.992.964.964,0,0,0-1.007-.946.98.98,0,0,0-1.008.977A.967.967,0,0,0,448.493-9.8ZM447.749,0h1.488V-8.215h-1.488Zm8.6-1.55a1.874,1.874,0,0,1-1.163.388,1.211,1.211,0,0,1-1.286-1.38V-6.99h2.356V-8.215H453.9v-1.8h-1.488v1.8h-1.395V-6.99h1.395v4.51a2.344,2.344,0,0,0,2.6,2.573,2.807,2.807,0,0,0,1.8-.573ZM464.4-8.215l-2.836,6.572-2.867-6.572h-1.55l3.627,8.2L460.5.558c-.4.946-.852,1.271-1.565,1.271a2.1,2.1,0,0,1-1.473-.6l-.635,1.116a3.084,3.084,0,0,0,2.108.76c1.255,0,2.2-.543,2.93-2.279l3.983-9.036Z" transform="translate(219 173)" fill="#fff"/>
      </g>
    </g>
  </g>
</svg>
